/* XPM */
static char *_497_a80948ab666a04eaf57a96c634fed11f8f2e15dbbadaeb9208a1b761a7c74b12[] = {
/* columns rows colors chars-per-pixel */
"32 36 254 2 ",
"   c #131209",
".  c #11110A",
"X  c #12110A",
"o  c #12110B",
"O  c #12120A",
"+  c #13120A",
"@  c #13130A",
"#  c #12120B",
"$  c #13130B",
"%  c #14130B",
"&  c #12140A",
"*  c #14140B",
"=  c #14150B",
"-  c #16140B",
";  c #12130C",
":  c #13130C",
">  c #15140C",
",  c #14150C",
"<  c #15150C",
"1  c #16140C",
"2  c #17140C",
"3  c #1A150C",
"4  c #1A150D",
"5  c #1C150D",
"6  c #1E160E",
"7  c #1E170E",
"8  c #181A0D",
"9  c #191A0D",
"0  c #18180E",
"q  c #1A190E",
"w  c #1E1B0E",
"e  c #1E1B0F",
"r  c #1B1D0E",
"t  c #1C1C0F",
"y  c #1C1D0F",
"u  c #1E1C0F",
"i  c #21190F",
"p  c #221710",
"a  c #211B10",
"s  c #251910",
"d  c #261A10",
"f  c #251D12",
"g  c #2A1A11",
"h  c #2C1B12",
"j  c #2D1B12",
"k  c #2D1C12",
"l  c #2C1C13",
"z  c #2D1D13",
"x  c #2F1E14",
"c  c #1D220C",
"v  c #242C0F",
"b  c #27310F",
"n  c #212210",
"m  c #252013",
"M  c #232214",
"N  c #262014",
"B  c #2C2516",
"V  c #2D2517",
"C  c #2D2617",
"Z  c #2F2716",
"A  c #242813",
"S  c #242913",
"D  c #272B14",
"F  c #272916",
"G  c #282B14",
"H  c #282916",
"J  c #292F14",
"K  c #2A2E17",
"L  c #2E271B",
"P  c #2E2F1A",
"I  c #2F2F1A",
"U  c #342517",
"Y  c #322719",
"T  c #33271A",
"R  c #37261A",
"E  c #342E1B",
"W  c #36291D",
"Q  c #312F1C",
"!  c #3C2C1A",
"~  c #3A281C",
"^  c #382F1C",
"/  c #3F2E1E",
"(  c #2E3A11",
")  c #2D3019",
"_  c #2D3119",
"`  c #363524",
"'  c #383021",
"]  c #393021",
"[  c #383022",
"{  c #3C3123",
"}  c #393621",
"|  c #412E1A",
" . c #43331F",
".. c #402E20",
"X. c #403720",
"o. c #403721",
"O. c #403423",
"+. c #413523",
"@. c #453420",
"#. c #463621",
"$. c #473423",
"%. c #473722",
"&. c #453424",
"*. c #473525",
"=. c #4C3626",
"-. c #433A20",
";. c #483822",
":. c #483823",
">. c #4D3826",
",. c #4C3D24",
"<. c #4D3E27",
"1. c #4E3E26",
"2. c #4E3F26",
"3. c #4F3F26",
"4. c #4B3D29",
"5. c #503927",
"6. c #523A28",
"7. c #503B2B",
"8. c #344215",
"9. c #374614",
"0. c #374913",
"q. c #3A4B13",
"w. c #3A4A14",
"e. c #3C4022",
"r. c #3C4122",
"t. c #445B16",
"y. c #455B16",
"u. c #465E16",
"i. c #516F18",
"p. c #54701B",
"a. c #54711B",
"s. c #55751A",
"d. c #5D7C1E",
"f. c #404623",
"g. c #414723",
"h. c #4B4627",
"j. c #4F4029",
"k. c #4F4129",
"l. c #504824",
"z. c #544E25",
"x. c #544F25",
"c. c #544229",
"v. c #54402A",
"b. c #54432A",
"n. c #52402E",
"m. c #59492F",
"M. c #5B482E",
"N. c #5D5F27",
"B. c #54542B",
"V. c #55552B",
"C. c #535D2E",
"Z. c #5B4A31",
"A. c #5F4E37",
"S. c #604632",
"D. c #634D32",
"F. c #624F36",
"G. c #625037",
"H. c #635037",
"J. c #6E5237",
"K. c #66543D",
"L. c #66553D",
"P. c #68543A",
"I. c #6E563B",
"U. c #6B583F",
"Y. c #70573B",
"T. c #70573D",
"R. c #75583B",
"E. c #70593E",
"W. c #4D6120",
"Q. c #57672C",
"!. c #57642F",
"~. c #5A6A30",
"^. c #64702F",
"/. c #6D5941",
"(. c #6E5A41",
"). c #6F5A42",
"_. c #6E5B42",
"`. c #6F5B42",
"'. c #725D43",
"]. c #745D42",
"[. c #785D40",
"{. c #85662F",
"}. c #927D3C",
"|. c #816749",
" X c #84674A",
".X c #83684B",
"XX c #876A49",
"oX c #8B6D49",
"OX c #886B4D",
"+X c #916F4E",
"@X c #8D6F50",
"#X c #8F7051",
"$X c #907250",
"%X c #997652",
"&X c #9F7D54",
"*X c #9E7C56",
"=X c #A17E56",
"-X c #63821F",
";X c #63831F",
":X c #668D1F",
">X c #678F1F",
",X c #698F1F",
"<X c #6C961F",
"1X c #6D961F",
"2X c #628323",
"3X c #729B22",
"4X c #729C22",
"5X c #769D29",
"6X c #6D863B",
"7X c #76A222",
"8X c #77A222",
"9X c #78A324",
"0X c #7AA923",
"qX c #7FB024",
"wX c #9E9C20",
"eX c #9E9D20",
"rX c #81AF2A",
"tX c #81B125",
"yX c #89BC26",
"uX c #8BBF27",
"iX c #85B52A",
"pX c #8ABD29",
"aX c #9CBC2F",
"sX c #89B435",
"dX c #8BC026",
"fX c #8BC027",
"gX c #97CB35",
"hX c #9BCF3B",
"jX c #9ED13E",
"kX c #B4CB38",
"lX c #B4CC38",
"zX c #A98258",
"xX c #AA835C",
"cX c #AB855C",
"vX c #B1895F",
"bX c #8CB342",
"nX c #91B150",
"mX c #C09464",
"MX c #C09564",
"NX c #9BC347",
"BX c #9AC747",
"VX c #9FC353",
"CX c #A3CB44",
"ZX c #A5D648",
"AX c #AADC4D",
"SX c #ABDC4E",
"DX c #B0E255",
"FX c #BAEA60",
"GX c #BBEA60",
"HX c #BEEC66",
"JX c #C0F069",
"KX c #C1F069",
"LX c #C1F169",
"PX c None",
/* pixels */
"PXPXPXPXPXPXPXPXPXPXPXPXPXPXPXPXPXPXPXPXPXPXPXPXPXPXPXPXPXPXPXPX",
"PXPXPXPXPXPXPXPXPXPXPXPXPXPXPX1 h - O O PXPXPXPXPXPXPXPXPXPXPXPX",
"PXPXPXPXPXPXPXPXPXPXPXPXPXPXPXs PXPXPX$ PXPXPXPXPXPXPXPXPXPXPXPX",
"PXPXPXPXPXPXPXPXPXPXPXPXPXPXPX% PXPXPXj PXPXPXPXPXPXPXPXPXPXPXPX",
"PXPXPXPXPXPXPXPXPXPXPXPXPXPXy ( ( r p PX$ PXPXPXPXPXPXPXPXPXPXPX",
"PXPXPXPXPXPXPXPXPXPXPXPX% X.<XDXDX1Xo.@ PXPXPXPXPXPXPXPXPXPXPXPX",
"PXPXPXPXPXPXPXPXPXPXPXPXH ;XfXgXgXfX-XF PXPXPXPXPXPXPXPXPXPXPXPX",
"PXPXPXPXPXPXPXPXw.y.0.0 B.qX0XdXfX0XqXV.0 0.t.q.PXPXPXPXPXPXPXPX",
"PXPXPXPXPXPXPXPX@ t 3X8Xz.ZXGXpXpXFXZXx.7X4Xt O PXPXPXPXPXPXPXPX",
"PXPXPXPXPXPXPXPXPXPXPXG Q.wX}.VX~.}.eXQ.D PXPXPXPXPXPXPXPXPXPXPX",
"PXPXPXPXPXPXPXPXPXPXPXPXf.aXlXCX^.kXaXg.PXPXPXPXPXPXPXPXPXPXPXPX",
"PXPXPXPXPXPXPXPXPXPXPXPX, W.>XBX:X>XW.* PXPXPXPXPXPXPXPXPXPXPXPX",
"PXPXPXPXPXPXPXPXPXPXPXPX< ) C.e.r.C._ = F.z PXPXPXPXPXPXPXPXPXPX",
"PXPXPXPXPXPXPXPXPXPX@ & d I S sXsXA P $ vXMX+XM PXPXPXPXPXPXPXPX",
"PXPXPXPXPXPXPXPXPXW J.XX1.f * p.a.* f ! ].R.h.E PXPXPXPXPXPXPXPX",
"PXPXPXPXPXPXPXPX@ %XmXxX2.3.w > < e 3.3./ 9 2Xd.q PXPXPXPXPXPXPX",
"PXPXPXPXPXPXPXPX: Q } H.3.3.3.U U 3.3.U.S.8 5XtXv PXPXPXPXPXPXPX",
"PXPXPXPXPXPXPXPX: N.!.+.@XE.P.>.$.OXcXI.3 PX9XNXn PXPXPXPXPXPXPX",
"PXPXPXPXPXPXPXPX: AXiX# @.&X X#.v.'.G. .O nXLXbXPXPXPXPXPXPXPXPX",
"PXPXPXPXPXPXPXPX-.SXl.X x V k.| | j.,.k O ,XuXi.PXPXPXPXPXPXPXPX",
"PXPXPXPXPXPXPXPXs.yXc B 3.;.` {.{.` l %.5 u b PXPXPXPXPXPXPXPXPX",
"PXPXPXPXPXPXPXPXs.jXJ O.[.m.#X6.=.M.3.3.Z PXPXPXPXPXPXPXPXPXPXPX",
"PXPXPXPXPXPXPXPX^ KXK 6 :.*X=X~ 5..Xb.D.4.PXPXPXPXPXPXPXPXPXPXPX",
"PXPXPXPXPXPXPXPX; JXHX6Xh 7 * + 4 zXvXc.+ PXPXPXPXPXPXPXPXPXPXPX",
"PXPXPXPXPXPXPXPX: rXhX9.oX|.  PXPXL T h 6 PXPXPXPXPXPXPXPXPXPXPX",
"PXPXPXPXPXPXPXPXPX8.u.m n.R o PXPX$ h h 6 PXPXPXPXPXPXPXPXPXPXPX",
"PXPXPXPXPXPXPXPXPXPX<.`.`.&.O PXPX$ g h i PXPXPXPXPXPXPXPXPXPXPX",
"PXPXPXPXPXPXPXPXPXPXL.`.(.C PXPXPX@ T.2 Y.O PXPXPXPXPXPXPXPXPXPX",
"PXPXPXPXPXPXPXPXPXPX' ] [ PXPXPXPX$ 7.$XZ.PXPXPXPXPXPXPXPXPXPXPX",
"PXPXPXPXPXPXPXPXPXPXPXPXPXPXPXPXPXPXa ..Y PXPXPXPXPXPXPXPXPXPXPX",
"PXPXPXPXPXPXPXPXPXPXPXPXPXPXPXPXPX@ *.`.`.% PXPXPXPXPXPXPXPXPXPX",
"PXPXPXPXPXPXPXPXPXPXPXPXPXPXPXPXPXPX{ _.).A.PXPXPXPXPXPXPXPXPXPX",
"PXPXPXPXPXPXPXPXPXPXPXPXPXPXPXPXPXPXN /.`.K.PXPXPXPXPXPXPXPXPXPX",
"PXPXPXPXPXPXPXPXPXPXPXPXPXPXPXPXPXPXPX: . O PXPXPXPXPXPXPXPXPXPX",
"PXPXPXPXPXPXPXPXPXPXPXPXPXPXPXPXPXPXPXPXPXPXPXPXPXPXPXPXPXPXPXPX",
"PXPXPXPXPXPXPXPXPXPXPXPXPXPXPXPXPXPXPXPXPXPXPXPXPXPXPXPXPXPXPXPX"
};
