/* XPM */
static char *_9815_98d1082f4cb4d6402b8a64da7b257f2b49ec47c4cc5ad85ac64b23ec61ae0ae3[] = {
/* columns rows colors chars-per-pixel */
"32 25 109 2 ",
"   c #33974B",
".  c #33984A",
"X  c #32984B",
"o  c #33984B",
"O  c #34984B",
"+  c #379C4A",
"@  c #31994C",
"#  c #33994C",
"$  c #33994D",
"%  c #35994C",
"&  c #399C4D",
"*  c #3A9D4D",
"=  c #3CA34C",
"-  c #3FA64C",
";  c #40A74C",
":  c #41A94D",
">  c #42A84D",
",  c #45AD4D",
"<  c #46AE4D",
"1  c #47AF4D",
"2  c #4BB34D",
"3  c #4AB34E",
"4  c #4CB44D",
"5  c #4DB44E",
"6  c #4DB54E",
"7  c #4DB64E",
"8  c #4EB74E",
"9  c #4FB84E",
"0  c #51BA4F",
"q  c #52BC4E",
"w  c #52BD4E",
"e  c #55BE4F",
"r  c #57C34E",
"t  c #59C44F",
"y  c #59C54F",
"u  c #5AC54E",
"i  c #5AC44F",
"p  c #5AC54F",
"a  c #5BC54F",
"s  c #5AC64F",
"d  c #5BC64F",
"f  c #5CC64E",
"g  c #5AC550",
"h  c #5BC550",
"j  c #5AC551",
"k  c #66C154",
"l  c #60C850",
"z  c #63C952",
"x  c #64CA53",
"c  c #67CC53",
"v  c #66CB54",
"b  c #68CC53",
"n  c #69CD53",
"m  c #6FCF57",
"M  c #71C757",
"N  c #75CF57",
"B  c #74D256",
"V  c #7BD45B",
"C  c #7ED858",
"Z  c #81D65E",
"A  c #81D959",
"S  c #83DB5A",
"D  c #83DB5B",
"F  c #8ADE5D",
"G  c #8ADC5E",
"H  c #8DDF5C",
"J  c #91E25D",
"K  c #92E25E",
"L  c #95E55E",
"P  c #96E45E",
"I  c #98E55F",
"U  c #99E65F",
"Y  c #99E75F",
"T  c #8ADB62",
"R  c #94DB64",
"E  c #97E363",
"W  c #9AE660",
"Q  c #9AE365",
"!  c #9FE666",
"~  c #9EE862",
"^  c #9FE962",
"/  c #A3EA64",
"(  c #A5EA64",
")  c #A5EA65",
"_  c #A6EB66",
"`  c #ACED69",
"'  c #ADE472",
"]  c #B2ED71",
"[  c #BAF371",
"{  c #BDF273",
"}  c #BFF473",
"|  c #BDF276",
" . c #C0F574",
".. c #C1F575",
"X. c #C2F475",
"o. c #C4F677",
"O. c #C5F777",
"+. c #C6F777",
"@. c #C8F878",
"#. c #CCF97B",
"$. c #CDFA7B",
"%. c #CEFA7C",
"&. c #D1FB7D",
"*. c #D3FB7D",
"=. c #D2FC7E",
"-. c #D3FC7E",
";. c #D3FD7E",
":. c #D3FC7F",
">. c None",
/* pixels */
">.>.>.>.>.>.>.>.>.>.>.>.>.>.>.>.>.>.O >.>.>.>.>.>.>.>.>.>.>.>.>.",
">.>.>.>.>.>.>.>.>.>.>.>.>.>.>.>.>.>.>.>.>.>.>.>.>.>.>.>.>.>.>.>.",
">.>.>.>.>.>.>.>.>.>.>.>.>.>.>.>.>.>.>.>.>.>.>.>.>.>.>.>.>.>.>.>.",
">.>.>.>.>.>.>.>.>.>.>.>.>.>.>.>.>.>.>.>.>.>.>.>.>.>.>.>.>.>.>.>.",
">.>.>.>.>.>.>.>.>.>.>.>.>.>.>.>.4 O >.>.>.>.>.>.>.>.>.>.>.>.>.>.",
">.>.>.>.>.>.>.>.>.>.>.>.>.>.>.p q , >.>.>.>.>.>.>.>.>.>.>.>.>.>.",
">.>.>.>.>.>.>.>.>.>.>.>.>.>.p p p y >.>.>.>.>.>.>.>.>.>.>.>.>.>.",
">.>.>.>.>.>.>.>.>.>.>.>.>.>.p p i p >.>.>.>.>.>.>.>.>.>.>.>.>.>.",
">.>.>.>.>.>.>.>.>.>.>.>.>.>.>.p a p >.>.>.>.>.>.>.>.>.>.>.>.>.>.",
">.>.>.>.>.>.>.>.>.>.>.>.>.>.>.6 7 5 >.>.>.>.>.>.>.>.>.>.>.>.>.>.",
">.>.>.>.>.>.>.>.# o >.>.>.>.>.o . o >.>.>.>.>.>.o >.>.>.>.>.>.>.",
">.>.>.>.>.>.>.>.@ o >.>.>.>.  o o o >.>.>.>.. . . >.>.>.>.>.>.>.",
">.>.>.>.>.>.>.>.>.>.>.>.>.>.o - < 1 >.>.>.>.o o >.>.>.>.>.>.>.>.",
">.>.>.>.>.>.>.>.>.>.>.>.>.>.= 9 p i >.>.>.>.. >.>.>.>.>.>.>.>.>.",
">.>.>.>.>.>.>.>.>.>.>.>.>.t r t u p p >.>.>.>.>.>.>.>.>.>.>.>.>.",
">.>.>.>.>.>.>.>.>.>.>.I H D S n p a p 3 o >.>.>.>.>.>.>.>.>.>.>.",
">.>.>.>.>.>.>.>.>.>.>.U Y Y U A n p p 8 : >.>.>.>.>.>.>.>.>.>.>.",
">.>.>.>.>.>.>.>.>.>.>.J P W ~ ^ F v v l s >.>.>.>.>.>.>.>.>.>.>.",
">.>.>.>.>.>.>.>.>.i h z C / O.@.o.| | T d a >.>.>.>.>.>.>.>.>.>.",
">.>.>.>.>.>.>.>.j p p p b G #.-.-.&.[ E B f g >.>.>.>.>.>.>.>.>.",
">.>.>.>.>.>.>.>.0 w p p p m { $.-.%.( U K V x e >.>.>.>.>.>.>.>.",
">.>.>.>.>.>.>.>.% ; p i p c L } -.%.) U _ %.Z 2 . >.>.>.>.>.>.>.",
">.>.>.>.>.>.>.>.$ + > N Q ]  .$.;.*.O...+.-.! k o >.>.>.>.>.>.>.",
">.>.>.>.>.>.>.>.>.X & R X.-.-.-.:.;.-.-.-.;.` M o >.>.>.>.>.>.>.",
">.>.>.>.>.>.>.>.>.>.* ' -.;.-.-.-.-.=.-.:.:.` M o >.>.>.>.>.>.>."
};
