/* XPM */
static char *_2910_67f98a0ed5f58b2d8f4dfa2aad0101eb62f5d91a7315b6e8c40152459ed61c78[] = {
/* columns rows colors chars-per-pixel */
"32 36 228 2 ",
"   c #14120A",
".  c #14130B",
"X  c #17160C",
"o  c #16150F",
"O  c #16160E",
"+  c #19160D",
"@  c #1A160D",
"#  c #18170E",
"$  c #191B0D",
"%  c #1A1A0D",
"&  c #1B1A0E",
"*  c #1D180E",
"=  c #1B1C0F",
"-  c #191A12",
";  c #1A1A12",
":  c #1E1F11",
">  c #1C1B14",
",  c #24180F",
"<  c #221810",
"1  c #221B11",
"2  c #251910",
"3  c #221E15",
"4  c #281B12",
"5  c #291D12",
"6  c #281E13",
"7  c #2B1E13",
"8  c #2C1D13",
"9  c #2B1D14",
"0  c #1F230D",
"q  c #222311",
"w  c #292215",
"e  c #2B2416",
"r  c #2F2816",
"t  c #2A2C16",
"y  c #24241E",
"u  c #2D2819",
"i  c #312718",
"p  c #352519",
"a  c #382719",
"s  c #302819",
"d  c #382A1A",
"f  c #3B291D",
"g  c #392F1C",
"h  c #2F3619",
"j  c #37321A",
"k  c #35311F",
"l  c #33341C",
"z  c #3A301E",
"x  c #37381C",
"c  c #383A18",
"v  c #393C18",
"b  c #282821",
"n  c #292923",
"m  c #2D2822",
"M  c #2F2C25",
"N  c #2F2C26",
"B  c #332D25",
"V  c #332F27",
"C  c #362E26",
"Z  c #3F2F21",
"A  c #2F3125",
"S  c #2E3029",
"D  c #343427",
"F  c #3B3222",
"G  c #3B3225",
"H  c #363E21",
"J  c #3A3820",
"K  c #31312B",
"L  c #36322B",
"P  c #333429",
"I  c #33342B",
"U  c #35352F",
"Y  c #3E3528",
"T  c #3D3832",
"R  c #3A3A35",
"E  c #40311E",
"W  c #41341F",
"Q  c #433122",
"!  c #463321",
"~  c #473223",
"^  c #423420",
"/  c #433520",
"(  c #443520",
")  c #463425",
"_  c #413D20",
"`  c #453926",
"'  c #4C3C24",
"]  c #4D3D25",
"[  c #4E3E24",
"{  c #4F3E25",
"}  c #4F3F26",
"|  c #463A29",
" . c #463B29",
".. c #4A3C29",
"X. c #493E29",
"o. c #493F2A",
"O. c #4E3D28",
"+. c #394818",
"@. c #3C4121",
"#. c #3C4025",
"$. c #3F482A",
"%. c #475F16",
"&. c #4C5F1F",
"*. c #51671D",
"=. c #526C1A",
"-. c #516C1D",
";. c #617E1F",
":. c #4F4027",
">. c #414A22",
",. c #444D21",
"<. c #44432A",
"1. c #464C29",
"2. c #504029",
"3. c #524128",
"4. c #524229",
"5. c #51432E",
"6. c #53422E",
"7. c #52422F",
"8. c #55412C",
"9. c #57462F",
"0. c #415120",
"q. c #465622",
"w. c #535C29",
"e. c #454036",
"r. c #42423D",
"t. c #44443F",
"y. c #544531",
"u. c #564430",
"i. c #594632",
"p. c #5D4A33",
"a. c #584C30",
"s. c #5F4C32",
"d. c #5D4934",
"f. c #5F4A35",
"g. c #5F4E37",
"h. c #505736",
"j. c #604E36",
"k. c #654F38",
"l. c #665236",
"z. c #6D523A",
"x. c #6E583E",
"c. c #70583E",
"v. c #576422",
"b. c #526425",
"n. c #5E7324",
"m. c #5F7B2A",
"M. c #617D20",
"N. c #637E21",
"B. c #617D24",
"V. c #657F24",
"C. c #60772A",
"Z. c #677F2C",
"A. c #65783A",
"S. c #464742",
"D. c #4C4743",
"F. c #4B4842",
"G. c #4B4B45",
"H. c #4C4C46",
"J. c #524C45",
"K. c #544F47",
"L. c #53534E",
"P. c #56504C",
"I. c #565750",
"U. c #565453",
"Y. c #5B5652",
"T. c #595956",
"R. c #5D5F56",
"E. c #5D5B59",
"W. c #6E5740",
"Q. c #625748",
"!. c #795F44",
"~. c #7B6144",
"^. c #646460",
"/. c #727270",
"(. c #886846",
"). c #81664A",
"_. c #8B6E4E",
"`. c #8B6E4F",
"'. c #61801F",
"]. c #678E1E",
"[. c #618522",
"{. c #648522",
"}. c #658623",
"|. c #678324",
" X c #678C20",
".X c #668825",
"XX c #698821",
"oX c #739425",
"OX c #729626",
"+X c #709A21",
"@X c #6E8A32",
"#X c #778B31",
"$X c #789C32",
"%X c #76A322",
"&X c #79A327",
"*X c #7AAA23",
"=X c #7EA62F",
"-X c #7CA828",
";X c #839922",
":X c #81983D",
">X c #A89036",
",X c #80AE25",
"<X c #80B024",
"1X c #81B324",
"2X c #81B225",
"3X c #81B027",
"4X c #83B425",
"5X c #88BD27",
"6X c #85B32F",
"7X c #86B829",
"8X c #8DA837",
"9X c #8BBB33",
"0X c #8BC027",
"qX c #91C430",
"wX c #92C631",
"eX c #9ACB3D",
"rX c #B3CE37",
"tX c #A68159",
"yX c #AD865D",
"uX c #AE875D",
"iX c #9DC44E",
"pX c #A0D340",
"aX c #A5D54C",
"sX c #AED949",
"dX c #AEDC56",
"fX c #B2E05C",
"gX c #B5E55D",
"hX c None",
/* pixels */
"hXhXhXhXhXhXhXhXhXhXhXhXhXhXhXhXhXhXhXhXhXhXhXhXhXhXhXhXhXhXhXhX",
"hXhXhXhXhXhXhXhXhXhXhXhXhXhXhXhXhXhXhXhXhXhXhXhXhXhXhXhXhXhXhXhX",
"hXhXhXhXhXhXhXhXhXhXhXhXhXhXhXhXhXhXhXhXhXhXhXhXhXhXhXhXhXhXhXhX",
"hXhXhXhXhXhXhXhXhXhXhXhXS.; ; - S hXhXhXhXhXhXhXhXhXhXhXhXhXhXhX",
"hXhXhXhXhXhXhXhXhXhXhX^.hXhXhXhXK U hXhXhXhXhXhXhXhXhXhXhXhXhXhX",
"hXhXhXhXhXhXhXhXhXhXhXT.hXhXhXhXy R hXhXhXhXhXhXhXhXhXhXhXhXhXhX",
"hXhXhXhXhXhXhXhX/.hXhXb hXhXhXA $ A I hXhXhXhXhXhXhXhXhXhXhXhXhX",
"hXhXhXhXhXhXhXhXhXhXhXhXhXhXX.N.4XaX$X<.hXhXhXhXhXhXhXhXhXhXhXhX",
"hXhXhXhXhXhXhXhXhXhXhXhXhX1.B.}.2XpXwX&.H.hXhXhXhXhXhXhXhXhXhXhX",
"hXhXhXhXhXhXhXhXhXhXhX$.0.v.n.OX5X0X%XM.l hXhXhXhXhXhXhXhXhXhXhX",
"hXhXhXhXhXhXhXhXhXhXhXR.+. X,XZ..X9XgX6X[.hXhXhXhXhXhXhXhXhXhXhX",
"hXhXhXhXhXhXhXhXhXhXhXhXhX= v XX*X;X>Xw.H hXhXhXhXhXhXhXhXhXhXhX",
"hXhXhXhXhXhXhXhXhXhXhXhXhXI.x C.eXsXrX8Xm.hXhXhXhXhXhXhXhXhXhXhX",
"hXhXhXhXhXhXhXhXhXhXhXhXhXT g J b.-X1X&X:X,.hXhXhXhXhXhXhXhXhXhX",
"hXhXhXhXhXhXhXhXhXhXhXhXhXy.8.u : ;.#X>.P hXhXhXhXhXhXhXhXhXhXhX",
"hXhXhXhXhXhXhXhXhXhXhXhXQ.uXyXQ   t =X-.hXhXhXhXhXhXhXhXhXhXhXhX",
"hXhXhXhXhXhXhXhXhXhXhXE.k a._.x.w X =.%.hXhXhXhXhXhXhXhXhXhXhXhX",
"hXhXhXhXhXhXhXhXhXhXhXhX#.'._ g.:.d r D hXhXhXhXhXhXhXhXhXhXhXhX",
"hXhXhXhXhXhXhXhXhXhXhXhXh.iX@Xo.s.2.O.J.hXhXhXhXhXhXhXhXhXhXhXhX",
"hXhXhXhXhXhXhXhXhXhXhXhXhX|.dXq.l.(.6.K.hXhXhXhXhXhXhXhXhXhXhXhX",
"hXhXhXhXhXhXhXhXhXhXhXhXhX& +X3Xh 1 * r.hXhXhXhXhXhXhXhXhXhXhXhX",
"hXhXhXhXhXhXhXhXhXhXhXhXD.i c ].<XV.@.hXhXhXhXhXhXhXhXhXhXhXhXhX",
"hXhXhXhXhXhXhXhXhXhXhXhXY { W q {.qXfXA.hXhXhXhXhXhXhXhXhXhXhXhX",
"hXhXhXhXhXhXhXhXhXhXhXF./ } 4.c.j oX7X*.n hXhXhXhXhXhXhXhXhXhXhX",
"hXhXhXhXhXhXhXhXhXhXhXF } 3.~.W.# % 0 + > hXhXhXhXhXhXhXhXhXhXhX",
"hXhXhXhXhXhXhXhXhXhXY.9 f ~ Z hXhXN 2 , . hXhXhXhXhXhXhXhXhXhXhX",
"hXhXhXhXhXhXhXhXhXhX5.z.! 6 hXhXhXG.` p.f.| hXhXhXhXhXhXhXhXhXhX",
"hXhXhXhXhXhXhXhXhXt. .).!.e.hXhXhXhXs u.i.e hXhXhXhXhXhXhXhXhXhX",
"hXhXhXhXhXhXhXhXU.o 7 p 3 hXhXhXhXhXL.O 5 8 m hXhXhXhXhXhXhXhXhX",
"hXhXhXhXhXhXhXhX< ^ j.) L hXhXhXhXhXhXB ( ' E 4 P.hXhXhXhXhXhXhX",
"hXhXhXhXhXhXhXhX@ 9.`.tX7.hXhXhXhXhXhXC a ] } [ z hXhXhXhXhXhXhX",
"hXhXhXhXhXhXhXhXhXG d.k...hXhXhXhXhXhXhXM V V V hXhXhXhXhXhXhXhX",
"hXhXhXhXhXhXhXhXhXhXhXhXhXhXhXhXhXhXhXhXhXhXhXhXhXhXhXhXhXhXhXhX",
"hXhXhXhXhXhXhXhXhXhXhXhXhXhXhXhXhXhXhXhXhXhXhXhXhXhXhXhXhXhXhXhX",
"hXhXhXhXhXhXhXhXhXhXhXhXhXhXhXhXhXhXhXhXhXhXhXhXhXhXhXhXhXhXhXhX",
"hXhXhXhXhXhXhXhXhXhXhXhXhXhXhXhXhXhXhXhXhXhXhXhXhXhXhXhXhXhXhXhX"
};
