/* XPM */
static char *_7_20cd9443f0d14f549b5c14203b7ef21e0cb318926af72756e64e7165380440e0[] = {
/* columns rows colors chars-per-pixel */
"32 36 234 2 ",
"   c #13120A",
".  c #17160D",
"X  c #18160D",
"o  c #1A170E",
"O  c #1C170F",
"+  c #1A1A0F",
"@  c #1C190E",
"#  c #1C190F",
"$  c #1E180F",
"%  c #191911",
"&  c #1A1A13",
"*  c #1C1B14",
"=  c #1E1B14",
"-  c #1C1C14",
";  c #1C1C15",
":  c #1E1E17",
">  c #241910",
",  c #251910",
"<  c #211D12",
"1  c #231E12",
"2  c #241F12",
"3  c #281A11",
"4  c #2B1B12",
"5  c #301F14",
"6  c #1F2012",
"7  c #1F2014",
"8  c #232015",
"9  c #222016",
"0  c #2E2014",
"q  c #232811",
"w  c #2E2A16",
"e  c #24231B",
"r  c #25251B",
"t  c #22221C",
"y  c #2F2319",
"u  c #2B2718",
"i  c #2E241B",
"p  c #2E261A",
"a  c #28251F",
"s  c #312316",
"d  c #342317",
"f  c #312416",
"g  c #312419",
"h  c #332418",
"j  c #312618",
"k  c #362518",
"l  c #382719",
"z  c #312A18",
"x  c #37291A",
"c  c #352C1A",
"v  c #3A281B",
"b  c #392B1B",
"n  c #382D1B",
"m  c #392B1D",
"M  c #3D2F1D",
"N  c #3F2F1E",
"B  c #303C13",
"V  c #303318",
"C  c #32331B",
"Z  c #36301B",
"A  c #34321D",
"S  c #3D301E",
"D  c #363E1A",
"F  c #373D1F",
"G  c #38391A",
"H  c #383A1E",
"J  c #292921",
"K  c #2B2B24",
"L  c #302720",
"P  c #362F26",
"I  c #30302A",
"U  c #31312A",
"Y  c #33332D",
"T  c #3A3229",
"R  c #3B3429",
"E  c #3F3728",
"W  c #38362F",
"Q  c #3C352E",
"!  c #3B3630",
"~  c #383831",
"^  c #3B3B35",
"/  c #3C3C36",
"(  c #3D3D37",
")  c #3E3E39",
"_  c #3F3F39",
"`  c #3E3E3A",
"'  c #433620",
"]  c #403423",
"[  c #443721",
"{  c #403923",
"}  c #413C22",
"|  c #483822",
" . c #493822",
".. c #493924",
"X. c #483A27",
"o. c #4C3C24",
"O. c #4D3D25",
"+. c #4E3D26",
"@. c #4E3F26",
"#. c #4F3F26",
"$. c #42382A",
"%. c #523F2B",
"&. c #403F39",
"*. c #3D4D16",
"=. c #39401C",
"-. c #3F4F1F",
";. c #3C5014",
":. c #42451B",
">. c #414E1F",
",. c #484C1E",
"<. c #455817",
"1. c #46561F",
"2. c #4E5B1D",
"3. c #4C6718",
"4. c #4B631D",
"5. c #51651E",
"6. c #54701B",
"7. c #55741A",
"8. c #56741A",
"9. c #434C25",
"0. c #4C4E22",
"q. c #4A4E29",
"w. c #504027",
"e. c #52412A",
"r. c #50422F",
"t. c #57462D",
"y. c #4C5D21",
"u. c #49552B",
"i. c #535425",
"p. c #474032",
"a. c #454235",
"s. c #464236",
"d. c #4A4337",
"f. c #4D4436",
"g. c #444F30",
"h. c #40403A",
"j. c #474038",
"k. c #464339",
"l. c #48443D",
"z. c #4D4F38",
"x. c #534530",
"c. c #544530",
"v. c #594530",
"b. c #594730",
"n. c #594731",
"m. c #584832",
"M. c #5C4B35",
"N. c #5C4F3E",
"B. c #5D4F3F",
"V. c #635037",
"C. c #665036",
"Z. c #62513A",
"A. c #675239",
"S. c #65533B",
"D. c #67523B",
"F. c #66533C",
"G. c #735C3F",
"H. c #5C6F29",
"J. c #577120",
"K. c #5A7226",
"L. c #5C7A20",
"P. c #637925",
"I. c #73633D",
"U. c #65773F",
"Y. c #737E33",
"T. c #4D4740",
"R. c #4B4B48",
"E. c #514F4C",
"W. c #5F5242",
"Q. c #705B41",
"!. c #765B40",
"~. c #7A5F40",
"^. c #785E44",
"/. c #7B6146",
"(. c #7D6448",
"). c #666662",
"_. c #8F6F50",
"`. c #907150",
"'. c #997755",
"]. c #987656",
"[. c #64831F",
"{. c #648721",
"}. c #668620",
"|. c #668720",
" X c #678424",
".X c #678920",
"XX c #6A8F23",
"oX c #6F8E24",
"OX c #69822A",
"+X c #68872D",
"@X c #6F8E2A",
"#X c #6D9620",
"$X c #719624",
"%X c #71932F",
"&X c #7D933E",
"*X c #75A122",
"=X c #78A127",
"-X c #79A624",
";X c #7BA824",
":X c #7CA924",
">X c #7CA925",
",X c #7DAA24",
"<X c #7EAE24",
"1X c #7AA629",
"2X c #B29039",
"3X c #92A524",
"4X c #80B125",
"5X c #81B325",
"6X c #84B326",
"7X c #85B627",
"8X c #87BA27",
"9X c #89BD26",
"0X c #82A436",
"qX c #85AF31",
"wX c #85AC33",
"eX c #85B330",
"rX c #85B033",
"tX c #8FBF34",
"yX c #90B338",
"uX c #8DC12A",
"iX c #8EC32C",
"pX c #A8CC33",
"aX c #A8835B",
"sX c #AF875D",
"dX c #B48B60",
"fX c #98C640",
"gX c #9FD142",
"hX c #9EC456",
"jX c #A7D445",
"kX c #A5CF55",
"lX c #A5D152",
"zX c #B8E85F",
"xX c #BAE560",
"cX c None",
/* pixels */
"cXcXcXcXcXcXcXcXcXcXcXcXcXcXcXcXcXcXcXcXcXcXcXcXcXcXcXcXcXcXcXcX",
"cXcXcXcXcXcXcXcXcXcXcXcXcXcXcXcXcXcXcXcXcXcXcXcXcXcXcXcXcXcXcXcX",
"cXcXcXcXcXcXcXcXcXcXcXcXcXcXcXcX: : : cXcXcXcXcXcXcXcXcXcXcXcXcX",
"cXcXcXcXcXcXcXcXcXcXcXcXcXcXcX* ^ cXcX/ cXcXcXcXcXcXcXcXcXcXcXcX",
"cXcXcXcXcXcXcXcXcXcXcXcXcXcXK ~ cXcXcXcX` cXcXcXcXcXcXcXcXcXcXcX",
"cXcXcXcXcXcXcXcXcXcXcXcXcXcXcX% cXcXcXcX( cXcXcXcXcXcXcXcXcXcXcX",
"cXcXcXcXcXcXcXcXcXcXcXcXcX>.L.7.<.p.cXcXR.E.).cXcXcXcXcXcXcXcXcX",
"cXcXcXcXcXcXcXcXcXcXcXcXG eXzX9X Xi.z.cXcXcXcXcXcXcXcXcXcXcXcXcX",
"cXcXcXcXcXcXcXcXcXcXcXr 5.8XiX5X#X{.q.cXcXcXcXcXcXcXcXcXcXcXcXcX",
"cXcXcXcXcXcXcXcXcXcXcXD .X1XuX7XOXP.oX3.-.cXcXcXcXcXcXcXcXcXcXcX",
"cXcXcXcXcXcXcXcXcXcXcX%XrXxXwXXX@X,XJ.g.cXcXcXcXcXcXcXcXcXcXcXcX",
"cXcXcXcXcXcXcXcXcXcXcX7 0.2X3X4X|.Z - cXcXcXcXcXcXcXcXcXcXcXcXcX",
"cXcXcXcXcXcXcXcXcXcXcX+XyXpXjXfXH.H &.cXcXcXcXcXcXcXcXcXcXcXcXcX",
"cXcXcXcXcXcXcXcXcXcX9.&X$X;X-Xy.A S P cXcXcXcXcXcXcXcXcXcXcXcXcX",
"cXcXcXcXcXcXcXcXcXcXcX_ F Y.[.+ u %.Z.cXcXcXcXcXcXcXcXcXcXcXcXcX",
"cXcXcXcXcXcXcXcXcXcXcXcX4.qXV   m aXsXN.cXcXcXcXcXcXcXcXcXcXcXcX",
"cXcXcXcXcXcXcXcXcXcXcXcX;.6.@ 2 V.`.I.{ ` cXcXcXcXcXcXcXcXcXcXcX",
"cXcXcXcXcXcXcXcXcXcXcXcXJ 1 f w.S.} }.C cXcXcXcXcXcXcXcXcXcXcXcX",
"cXcXcXcXcXcXcXcXcXcXcXcXk.+...t.c.K.lXu.cXcXcXcXcXcXcXcXcXcXcXcX",
"cXcXcXcXcXcXcXcXcXcXcXcXl.M.~.G.=.kX0XT.cXcXcXcXcXcXcXcXcXcXcXcX",
"cXcXcXcXcXcXcXcXcXcXcXcXh.@ n q >X:Xz cXcXcXcXcXcXcXcXcXcXcXcXcX",
"cXcXcXcXcXcXcXcXcXcXcXcXcX6 ,.*X<X*.# cXcXcXcXcXcXcXcXcXcXcXcXcX",
"cXcXcXcXcXcXcXcXcXcXcXcXU.hXtX=XB c O.R cXcXcXcXcXcXcXcXcXcXcXcX",
"cXcXcXcXcXcXcXcXcXcXcXcX1.gX6X2.X.w.#.M ) cXcXcXcXcXcXcXcXcXcXcX",
"cXcXcXcXcXcXcXcXcXcXcX& w 8.:.. /.A.@.o.y cXcXcXcXcXcXcXcXcXcXcX",
"cXcXcXcXcXcXcXcXcXcXcXX > , O I d.^.!.n.g cXcXcXcXcXcXcXcXcXcXcX",
"cXcXcXcXcXcXcXcXcXcXs.< j x Y cXcX! 4 5 v $.cXcXcXcXcXcXcXcXcXcX",
"cXcXcXcXcXcXcXcXcXcX] _.(.x.cXcXcXcX8 C.].F.h.cXcXcXcXcXcXcXcXcX",
"cXcXcXcXcXcXcXcXcXU o h s 9 cXcXcXcXcXr.D.p t cXcXcXcXcXcXcXcXcX",
"cXcXcXcXcXcXcXcXW i k b ; cXcXcXcXcXcXa d N $ e cXcXcXcXcXcXcXcX",
"cXcXcXcXcXcXcXa.l  .#.| L cXcXcXcXcXcXT v.Q.e.3 cXcXcXcXcXcXcXcX",
"cXcXcXcXcXcXcXE [ [ ' 0 Q cXcXcXcXcXcXm.dX'.b.= cXcXcXcXcXcXcXcX",
"cXcXcXcXcXcXcXcXcXcXcXcXcXcXcXcXcXcXcXf.W.B.j.cXcXcXcXcXcXcXcXcX",
"cXcXcXcXcXcXcXcXcXcXcXcXcXcXcXcXcXcXcXcXcXcXcXcXcXcXcXcXcXcXcXcX",
"cXcXcXcXcXcXcXcXcXcXcXcXcXcXcXcXcXcXcXcXcXcXcXcXcXcXcXcXcXcXcXcX",
"cXcXcXcXcXcXcXcXcXcXcXcXcXcXcXcXcXcXcXcXcXcXcXcXcXcXcXcXcXcXcXcX"
};
