/* XPM */
static char *_957_0ad8c0b1b43560e33aec5dc6d6d64cb80010d2e44892d6c180746446f6bf2489[] = {
/* columns rows colors chars-per-pixel */
"32 36 86 1 ",
"  c black",
". c #1E1E1E",
"X c #221100",
"o c #222222",
"O c gray15",
"+ c #2A2A2A",
"@ c #2F2F2F",
"# c #6F1111",
"$ c #7C1E1E",
"% c #5E2F00",
"& c #603000",
"* c #75522F",
"= c gray25",
"- c #444444",
"; c gray30",
": c gray32",
"> c #555555",
", c gray34",
"< c #606060",
"1 c #6A6A6A",
"2 c gray44",
"3 c gray46",
"4 c #777777",
"5 c #800000",
"6 c #880000",
"7 c #910000",
"8 c #970000",
"9 c #881515",
"0 c #931E1E",
"q c #A00000",
"w c #A80000",
"e c #B10000",
"r c #B70000",
"t c #AB1E1E",
"y c #973B3B",
"u c #C00000",
"i c #C60000",
"p c #C80000",
"a c #D70000",
"s c #C21E1E",
"d c #E00000",
"f c #E01E1E",
"g c #804000",
"h c #88592A",
"j c #805E5E",
"k c #885E5E",
"l c #995E5E",
"z c #AF4646",
"x c #B74646",
"c c #A05050",
"v c #A85454",
"b c #9D6A6A",
"n c #887373",
"m c #A56A6A",
"M c #C04646",
"N c #C84646",
"B c #C06060",
"V c #C86464",
"C c #D76C6C",
"Z c #E87474",
"A c #EE7777",
"S c #F77C7C",
"D c #978675",
"F c gray55",
"G c gray56",
"H c #909090",
"J c #959595",
"K c #A28080",
"L c #A29191",
"P c #B2A599",
"I c #A0A0A0",
"U c gray64",
"Y c #ACACAC",
"T c #B7B7B7",
"R c #FF8080",
"E c #FF9191",
"W c #FFAFAF",
"Q c #C3C3C3",
"! c #D0D0D0",
"~ c gray83",
"^ c #D7D7D7",
"/ c #FFC0C0",
"( c #FFD1D1",
") c #FFEEEE",
"_ c #F3F3F3",
"` c white",
/* pixels */
"                                ",
"                                ",
"                                ",
"                                ",
"                                ",
"                                ",
"              Xgg%              ",
"             +Dggh3             ",
"            -_P&&*Y3            ",
"             -_~^T3             ",
"             OF4,>1             ",
"             OF4,>1             ",
"             @U4,>1             ",
"             @U4,>1             ",
"             @U4,>1             ",
"             @YG,>1             ",
"             @YG,;:             ",
"           oJ!QIG,;2:           ",
"          oL(`_QG<,=;:          ",
"         oKE(`)WAz5#=;:         ",
"        olfZE/WSCxqqwut:        ",
"        onvVZRSCMuupdi$:        ",
"        oncvBBBNddi555$:        ",
"        oj9cccy555557r0:        ",
"        ok855685557rqq0:        ",
"        oj568556qqqqwut:        ",
"         oj556qqqwuuut:         ",
"         okqqqqeauuups:         ",
"          Obuuuuupdds:          ",
"           OHmdddds2:           ",
"             .2222:             ",
"                                ",
"                                ",
"                                ",
"                                ",
"                              +3"
};
