/* XPM */
static char *_1356_53985a22f8e5b8979b029d507f101642a9e708796b02082261e7edb0da7a3d53[] = {
/* columns rows colors chars-per-pixel */
"32 36 108 2 ",
"   c #312434",
".  c #3A2C36",
"X  c #372D39",
"o  c #3C2C3A",
"O  c #3F313B",
"+  c #44333C",
"@  c #4A363C",
"#  c #43383F",
"$  c #543B3F",
"%  c #5C3C3E",
"&  c #603D3D",
"*  c #62403E",
"=  c #423543",
"-  c #4A3742",
";  c #473946",
":  c #4C3A43",
">  c #543E42",
",  c #5C3F41",
"<  c #633F41",
"1  c #544145",
"2  c #5D4243",
"3  c #5E4847",
"4  c #54424A",
"5  c #5A464A",
"6  c #554A4E",
"7  c #5D494D",
"8  c #534351",
"9  c #594653",
"0  c #5B4852",
"q  c #644544",
"w  c #6C4542",
"e  c #644946",
"r  c #6B4C45",
"t  c #644C4B",
"y  c #6B4E4A",
"u  c #734D44",
"i  c #794D42",
"p  c #724E4A",
"a  c #66524B",
"s  c #6C534C",
"d  c #6F584F",
"f  c #745146",
"g  c #7C5345",
"h  c #74544A",
"j  c #7B554A",
"k  c #74594D",
"l  c #7B5A4C",
"z  c #644F51",
"x  c #655255",
"c  c #6C5552",
"v  c #6F5A54",
"b  c #6E5A5A",
"n  c #725551",
"m  c #735B54",
"M  c #7A5D52",
"N  c #745E59",
"B  c #795E59",
"V  c #756155",
"C  c #7C6154",
"Z  c #73605C",
"A  c #7B645B",
"S  c #7F6A5C",
"D  c #705E6B",
"F  c #6E6060",
"G  c #7D6562",
"H  c #7D6863",
"J  c #815546",
"K  c #815748",
"L  c #845B4B",
"P  c #8A5F4C",
"I  c #845F50",
"U  c #84604E",
"Y  c #8A624E",
"T  c #90654F",
"R  c #836354",
"E  c #8C6452",
"W  c #876956",
"Q  c #8A6956",
"!  c #82655A",
"~  c #846A5C",
"^  c #8D6C5A",
"/  c #916750",
"(  c #966C54",
")  c #9A6E52",
"_  c #94725E",
"`  c #9D7259",
"'  c #9C795F",
"]  c #A47657",
"[  c #A57A5C",
"{  c #A87B5C",
"}  c #826561",
"|  c #836B63",
" . c #8B6E62",
".. c #966F62",
"X. c #847162",
"o. c #897265",
"O. c #87726B",
"+. c #8A746A",
"@. c #937363",
"#. c #937967",
"$. c #907A71",
"%. c #907A7C",
"&. c #AD805F",
"*. c #9F846A",
"=. c #A3836E",
"-. c #A68770",
";. c #AB8976",
":. c #AE9585",
/* pixels */
"N B S N + t t c 2 e 2 2 o m y y Z Z c s c x t . a c d V + x c v ",
"l h j ! + r % & ` J K U o y 2 e q 2 e s c q 2 e y f k d A L f l ",
"L f f Q c & & w * J g K : s q q e q 2 s t q , , y f l U N h j R ",
"l h j o.5 * u * g * g U = @ s e q e q y a q , r f k U ^ b L Y U ",
"l u l ^ ; w u * i i j E O A Z a k t t N c q e r k Y U ^ | b E U ",
"Q l ! B o r u f g g K Y O v V v s s a t t e s l Q ^ ^ s 5 U l Y ",
"  x > = y s n n 9 +.S S Z G *.6 | x m m N m N o x N N N z z 7 o ",
"+ w < , 2 q y | 8 k k ! s d d a F v s v l M C = l l u w w u P I ",
"- p < , , < < y ; n n l k s k d v d q s k C R = j j u p i u E P ",
"o p < < , , q y 9 I l k k k k a Z a e a l R W ; ! j u u p K L L ",
"o w w @ , q y y 0 R M k W C V d Z a a s l ~ ^ 4 ! j p u J L K L ",
"o : < p q q q 2 @ y R C C C k 3 4 a 1 M C ^ ^ > L u g g p P K j ",
"B M m B + I ! ^ @._ ^ M + Z H S X.X.S d G N b B B b c n - } L B ",
"p p y y = p w w g j P I ; m s a a a a S t 2 2 2 , > 2 n > I p p ",
"j j l n + u < w K L j K + m a a a a a S 7 2 q , , > q y t j p u ",
"l M M I + J p w u L L K o N m s a d d V y q y q e q q p c E L K ",
"l R ! ^ + E L j K L Y T O V a a a a V S 5 r h y s r y j 5 E E I ",
"q e s t . , q u u P K l O a # 3 1 a 1 > + q t h G q < > : p y p ",
"M = O.G c c c B a | =.-.#.~ S c X.V X U ^ ^ ' ' t :.I R R  .M j ",
"l 7 A c 4 y t e y N ~ L h s m ~ k h O W L j K Y M ;.p p p u j j ",
"C a N t a s s e y z I l k s s k | h K P g u Y P n p w g j j h l ",
"l x Z c d d k s m 7 L I l l k l D l P P L * * * n j j g i j l l ",
"s 5 b s k n m l M z l M k l ~ ~ %.h T P J J f f q I j j f l U j ",
"y 5 1 3 r t y M 4 > q q r e r 5 > f L L Y L g r q  .f j g l l h ",
"d V r s C V a a q y q y o B U Q l l f ^ : C R Q R R R R + $.S A ",
"y e e e W s 2 , , q q e + h l k l f f ^ 1 q f l L p f f : V s s ",
"h f ~ f R k q q 2 , q t 1 h j L Y Y f l 7 q w f p j P j . Z h s ",
"l l k l _ m r r r r q m 1 l U ( ) T U j 7 f r f P T P j + R C l ",
"j l R L _ s u r u f h k q j U ( ) / U l 5 5 P L ` ` ( E 1 R R C ",
"l f l M 2 1 1 j j M y f e f l Y T r U r + / ) ( ) ( [ E $ k C ! ",
"x R R R W B | ..7 R R U R ^ ^ R V X.o.o.X.#.*.: b N B B m M B ^ ",
"x R l u g j * u t &.* g g L K / n k V s k m C C C r q % , q r k ",
"c E T L w * i w L w w i g Y ) E m y a s k n k 5 B w % % * r f h ",
"5 ` ] ] L i i i q K i i g g Y ` a b n s d k S X.n q q , * r f Q ",
"> { { ] P J i I , L g i g J Y ( *.F n s k m C Z N q * r r k l ^ ",
"; { { ( ) T P E , u K K g Y ( h | k s k V k S x n h f f L U Q ^ "
};
