/* XPM */
static char *_5dbbf00e1ad4fc2fb67c135c0a7383asSPqeYEL6eFQgpDV[] = {
/* columns rows colors chars-per-pixel */
"32 32 173 2 ",
"   c #040000",
".  c #0B0100",
"X  c #02040C",
"o  c #050A04",
"O  c #150100",
"+  c #1A0100",
"@  c #180D09",
"#  c #181003",
"$  c #000611",
"%  c #010914",
"&  c #080D11",
"*  c #00061B",
"=  c #000A1C",
"-  c #230200",
";  c #2B0600",
":  c #2D0C05",
">  c #000D23",
",  c #000C2A",
"<  c #76544B",
"1  c #755A4F",
"2  c #6F5D53",
"3  c #725C51",
"4  c #736364",
"5  c #6C667C",
"6  c #8F7461",
"7  c #957067",
"8  c #9F7366",
"9  c #9E766A",
"0  c #927869",
"q  c #957D71",
"w  c #987F7A",
"e  c #A07765",
"r  c #A67869",
"t  c #4B5F91",
"y  c #5A6287",
"u  c #52638E",
"i  c #4F6795",
"p  c #50709F",
"a  c #7E8790",
"s  c #5586BE",
"d  c #5F94BE",
"f  c #698AA9",
"g  c #7A96AE",
"h  c #6A8FBC",
"j  c #6C8CB5",
"k  c #6191B5",
"l  c #6F94B1",
"z  c #7A99B6",
"x  c #7296BC",
"c  c #5D89C8",
"v  c #5892C4",
"b  c #5F97CA",
"n  c #689ECD",
"m  c #7797C6",
"M  c #719DCE",
"N  c #679ED6",
"B  c #699AD5",
"V  c #7C9CD7",
"C  c #898B8A",
"Z  c #8D8C9A",
"A  c #BC9A81",
"S  c #B0A39D",
"D  c #8191B2",
"F  c #809ABD",
"G  c #AAA9A7",
"H  c #ACABAC",
"J  c #B9A6A2",
"K  c #B4ACAB",
"L  c #BFADAB",
"P  c #B6B1AE",
"I  c #BBB1AF",
"U  c #B5B1B3",
"Y  c #BBB5B3",
"T  c #BDB8B5",
"R  c #B5B4B9",
"E  c #B9B4B8",
"W  c #B7B8BC",
"Q  c #BEB8B8",
"!  c #C09A83",
"~  c #DDB695",
"^  c #D4B6A5",
"/  c #D4BAAB",
"(  c #C5B1BA",
")  c #CCBFBA",
"_  c #C4B2B2",
"`  c #D2BCB7",
"'  c #E7BEA2",
"]  c #E5BBAD",
"[  c #DBC3A9",
"{  c #CFC1BB",
"}  c #CCC3B2",
"|  c #E7C0A1",
" . c #E1C3BB",
".. c #9FCBE6",
"X. c #9DCAE8",
"o. c #91C6F0",
"O. c #9ECFF1",
"+. c #90CFFB",
"@. c #9BC9FB",
"#. c #96D0F6",
"$. c #94D1FE",
"%. c #9DD6FF",
"&. c #AEC1E2",
"*. c #A5C9E3",
"=. c #AACFE9",
"-. c #A1D1F5",
";. c #CAC5CC",
":. c #C4C7D0",
">. c #D0C5D5",
",. c #F7D2C0",
"<. c #FEDFCD",
"1. c #FFF0D9",
"2. c #E7ECE8",
"3. c #EEEDEA",
"4. c #FCEDE3",
"5. c #F6EFE9",
"6. c #F8EEED",
"7. c #ECF2EE",
"8. c #F3F2EE",
"9. c #FCF5ED",
"0. c #F6F9ED",
"q. c #F8F8ED",
"w. c #F4EFF6",
"e. c #E7F1F2",
"r. c #EDF4F4",
"t. c #EFFBF7",
"y. c #E7F1FB",
"u. c #ECF6FD",
"i. c #EEFCFB",
"p. c #F6F6F5",
"a. c #FAF6F4",
"s. c #F5F8F5",
"d. c #FCFAF4",
"f. c #F5F6FB",
"g. c #FEF2FA",
"h. c #FBF5F9",
"j. c #F8F6F9",
"k. c #FAF5FB",
"l. c #F9F7FB",
"z. c #FDF4F9",
"x. c #FCF6F8",
"c. c #FBF3FF",
"v. c #FEF3FD",
"b. c #FBF5FC",
"n. c #F8F5FE",
"m. c #F8F4FF",
"M. c #FAF5FE",
"N. c #F8F5FA",
"B. c #F1FAF9",
"V. c #F2F9FA",
"C. c #F4F8F9",
"Z. c #F7F9F8",
"A. c #F5FBFB",
"S. c #F7FFF9",
"D. c #F1F9FC",
"F. c #F1F8FF",
"G. c #F1FBFF",
"H. c #F5FAFE",
"J. c #F7FCFF",
"K. c #F5FFFF",
"L. c #F4FDFF",
"P. c #F4F8FB",
"I. c #FAFBF9",
"U. c #FEF9F9",
"Y. c #F9FFFB",
"T. c #FFFFFB",
"R. c #FFFEFA",
"E. c #F9F9FF",
"W. c #FFF9FD",
"Q. c #F9FFFF",
"!. c #F9FCFF",
"~. c #FEFEFE",
"^. c #FCFCFC",
/* pixels */
"m.n.f.C.s.a.a.a.a.C.P.P.F.n.g.v.u.J.C.a.9.9.f.H.f.f.n.F.t.s.9.9.",
"n.n.P.C.s.s.a.a.a.I.C.t.J.f.z.W.P.s.8.U.d.a.~.s.C.k.n.n.i.s.a.9.",
"D.P.i.t.C.C.a.a.U.p.7.S.7.S.d.8.~.U.8.U.5.d.2.Y.0.s.k.f.P.C.x.z.",
"C.C.P.C.P.C.x.z.a.U.R.8.S.7.0.R.8.9.U.9.9.d.C.r.0.q.x.k.C.P.k.v.",
"a.a.x.C.f.f.k.k.a.p.8.p.C.d.d.a.U.9.6.R.0.8.Y.r.0.q.a.x.C.P.m.c.",
"a.a.x.f.n.n.n.k.W.U.a.I.p.C.p.p.5.U.k.p.p.C.e.J.s.a.a.x.C.C.f.m.",
"g.g.m.F.D.D.n.m.h.z.p.p.f.E.n.E.s.Y.D.y.H.P.u.F.f.x.z.x.s.s.p.k.",
"g.k.n.D.D.F.n.m.m.m.n.D.$ % * * $ % > i.D.r.Y.H.n.k.k.x.s.s.p.x.",
"s.s.C.C.P.f.k.m.W.f.u.> =.X.O.-.X...x , u.P.Y.f.n.f.k.x.s.s.a.a.",
"0.0.0.s.s.a.z.g.m.H.= *.O.#.$.+.%.o.@.x $ s.~.p.f.f.k.p.s.s.a.a.",
"q.0.0.0.q.9.a.z.n.J., l k d n b v N B h = 8.3.R.C.C.p.p.C.C.f.k.",
"x.s.s.0.q.9.a.x.f.y.= g z f F j M s c p X R.U.U.C.C.C.p.C.f.f.f.",
"n.D.D.P.C.a.a.x.Y.H.$ a :.;.( >.&.m V i X 0.a.8.C.P.p.s.C.f.f.n.",
"F.F.F.P.p.a.a.x.f.r.& C @ 4.] : m.D t u & a.p.~.D.D.p.a.s.C.f.D.",
"n.n.C.a.9.9.a.a.p.D.r.o # 1.' ; a.Z y y X ~.w.m.F.F.x.a.s.s.P.P.",
"f.p.a.q.9.9.a.x.C.C.Y.  } [ ~ | ^ _ 5 5 X 6.W.f.F.F.x.a.a.s.C.P.",
"a.a.a.s.p.p.f.f.C.I.8.9.O 6 A ! e 7 + 4   ~.Y.P.P.C.x.x.x.x.f.f.",
"a.a.x.C.f.C.D.C.I.p.U.. O 0 <.,.r 8 + O a.a.7.P.C.C.x.x.x.x.k.f.",
"a.a.x.C.f.C.C.C.f.d.  { . q / ^ 9 -  .` . R.s.Y.C.p.x.x.x.x.k.f.",
"x.x.p.p.f.C.C.f.p.~.  ) . 2 3 1 < - ` ) . 8.s.r.C.p.a.a.x.x.f.f.",
"x.p.p.p.C.C.C.C.I.3.K . . S { J + w O   Y p.~.Y.C.s.a.a.x.x.k.f.",
"p.p.p.x.C.C.C.C.I.d.U T P I K Y L J I E G R.p.C.s.a.a.a.x.p.f.f.",
"f.f.C.C.x.p.p.p.d.d.I.H H U E U Y K Q G I.a.8.8.s.a.a.a.x.p.f.C.",
"f.f.C.C.x.p.p.p.a.I.p.E.~.W H R U E p.~.a.a.Y.d.a.a.a.x.p.C.C.C.",
"f.f.C.C.x.p.p.s.p.p.C.f.f.n.n.n.n.f.f.C.C.C.s.s.a.a.x.x.p.C.C.P.",
"f.f.C.C.x.p.s.s.p.p.C.f.C.f.D.P.n.C.C.C.C.C.s.a.a.x.x.p.C.C.C.C.",
"f.f.p.p.p.p.p.p.p.x.C.f.C.C.f.f.D.P.C.C.C.s.a.a.p.x.x.f.f.C.C.C.",
"f.p.p.p.p.p.p.p.p.x.C.C.f.C.f.P.C.C.C.C.s.a.a.x.x.f.f.f.f.C.C.C.",
"x.x.p.p.p.p.C.C.C.C.x.x.x.f.f.f.C.C.C.s.a.a.a.x.f.f.f.f.f.C.C.s.",
"x.x.x.x.p.p.C.C.C.C.p.p.x.x.p.p.C.C.s.a.a.a.a.x.k.f.n.f.f.C.C.s.",
"x.x.x.x.p.p.C.C.C.C.p.p.x.a.a.a.s.s.s.a.9.a.a.x.f.n.n.n.f.C.s.s.",
"x.x.x.x.p.p.C.C.C.C.p.p.a.a.a.a.a.s.a.q.9.a.a.x.k.n.n.n.f.C.s.s."
};
