/* XPM */
static char *d3e0dbe91df6449bada467b5cb328dd6vFI2CstuYXyx5s8r[] = {
/* columns rows colors chars-per-pixel */
"32 36 96 2 ",
"   c #010101",
".  c #0A0501",
"X  c #0E0A05",
"o  c #0D0D0D",
"O  c #140C06",
"+  c #120E0B",
"@  c #16120D",
"#  c #1C130C",
"$  c #0F1012",
"%  c #131313",
"&  c #1C1611",
"*  c #1F1812",
"=  c #1D1D1D",
"-  c #23190F",
";  c #201710",
":  c #251C14",
">  c #211E1B",
",  c #2A2017",
"<  c #24201C",
"1  c #29221C",
"2  c #31281F",
"3  c #211F20",
"4  c #232323",
"5  c #282724",
"6  c #2A2927",
"7  c #2D2D2D",
"8  c #342B24",
"9  c #302E2F",
"0  c #31302E",
"q  c #2E2F31",
"w  c #2F3032",
"e  c #323233",
"r  c #3D3C3C",
"t  c #403F3E",
"y  c #3E403F",
"u  c #4D443D",
"i  c #3E3F41",
"p  c #424242",
"a  c #4E4A47",
"s  c #4D4D4D",
"d  c #504F4B",
"f  c #51504C",
"g  c #4D4E50",
"h  c #4F5052",
"j  c #525252",
"k  c #565759",
"l  c #5D5D5D",
"z  c #605E5B",
"x  c #62615E",
"c  c #5E5F61",
"v  c #5F6062",
"b  c #626262",
"n  c #6D6C6C",
"m  c #70706E",
"M  c #6E6F71",
"N  c #6D6E70",
"B  c #707173",
"V  c #727272",
"C  c #777779",
"Z  c #77787A",
"A  c #7D7978",
"S  c #7C7C7A",
"D  c #807C7B",
"F  c #81807E",
"G  c #84817C",
"H  c #86827F",
"J  c #7F8082",
"K  c #818181",
"L  c #808183",
"P  c #868485",
"I  c #8D8D8D",
"U  c #8E8E8C",
"Y  c #8C8D8F",
"T  c #8F9092",
"R  c gray57",
"E  c #939290",
"W  c #939496",
"Q  c gray60",
"!  c #9F9B9A",
"~  c #9C9D9F",
"^  c gray62",
"/  c #A09F9B",
"(  c #A39F9E",
")  c #A1A09C",
"_  c #A2A19D",
"`  c #A2A19F",
"'  c #9D9EA0",
"]  c #9E9FA1",
"[  c #9FA0A2",
"{  c #A0A0A0",
"}  c gray63",
"|  c #A3A3A1",
" . c #A0A1A3",
".. c #A1A2A4",
"X. c #A2A3A5",
"o. c #A5A3A4",
/* pixels */
"O u # # 8 # 8 : # O @ ; ; 8 : * < > + @ O * * O # : ; # - , ; - ",
"@ 1 O : @ 1 1 ; * * O @ O * * 1 & > > X @ @ X @ * # : 2 , : , # ",
"                  .     .             .               .     . . ",
"  5 A a n l ! ) D d l x z f ( ) m b k p r j z ) / H a b z H <   ",
"  7 o.e r S e p P 7 9 e p  .n l j y 7 7 e r j I e t F r j E 6   ",
"   .e j I r r 7 s p  .^ l n 4 e v 4 [ ..c ' r e r e r R r s Q   ",
"  T w i ..7 j e p ..b l k j ' s n g c N ..c B q c i q ..e j Z   ",
"  p I  .J p g p ' b N w q e c ..b i e e i N W v p g p L ^  .p   ",
"  7 k r p b r j p 7 e j r p e b j e j r e 7 e e j j L p r k 7   ",
"  4 7 e e 4 = e 7 4 = = 4 r 4 4 4 = e 7 7 4 4 = = 4 = = 4 = 4   ",
"  = 5 0 = 6 4 +                                 4 = 7 4 9 3 %   ",
"  < x e 4 j 7 %                                 < b 0 = s e o   ",
"  r r = 4 s 7 4                                 7 t 3 4 j 7 4   ",
"  7 e p j r 4 =                                 e 6 p s p 4 >   ",
"  4 B h s p 4 $                                 = C j s r 4 +   ",
"  q p B j p w 4                                 e i n j p e =   ",
"  s 4 j r 4 r =                                 j = j p = p 4   ",
"  7 = o 4 % 7 4                                 7 = o = % 7 =   ",
"  4 b 4 4 s = %                                 4 b 4 4 s 4 %   ",
"  4 r B s p = o                                 = p n j p 4 o   ",
"  e 7 p s 4 e =                                 e 7 p s 4 e =   ",
"  e j 4 = r e =                                 7 k = 4 r 7 4   ",
"  7 = C p 4 4 4                                 e 3 n r 4 e =   ",
"  4 b o 4 s 4 o                                 4 k % 4 s = %   ",
"  4 n 4 o B e =   7 o 7 % 7 o e o e o e % 7 o   4 n = % n e =   ",
"  r 4 o 4 7 r 4   o % % o % o o %   = o % % %   p = % = e p =   ",
"  e C 4 o p e 4   r r 7 p e p e r 7 p e r e r   7 C = % p 7 =   ",
"  7 j = % j 7 =   e 7 7 e 7 e e e e 7 7 e e 7   e s 4 o j e =   ",
"  r p o % s 4 %   j j k s k s s s s s k j s j   e r % % j = %   ",
"  r 4 4 = 4 p =     j b j l j b k b j l s b     p = 4 = = r =   ",
"b B B B n b b l s   j s s j s j j s s k k s   b n B B n l n l j ",
"B s r s k s p j e   l b b b l b l b b b l b   B j p s s k r j 7 ",
"B r j p j r p r 7   k B l B b B l B b n l C   n p g p s p r r e ",
"e = 4 4 4 4 4 4 4                             e = 4 = 4 4 4 4 = ",
"                                                                ",
"                                n     o                         "
};
