/* XPM */
static char *_5621_cdaa629487da31d84e25349c0c4febad568044e906d70634a76e1b79e9faad28[] = {
/* columns rows colors chars-per-pixel */
"32 36 208 2 ",
"   c #121207",
".  c #11110A",
"X  c #10120A",
"o  c #12120A",
"O  c #13120A",
"+  c #13130A",
"@  c #13130B",
"#  c #14120A",
"$  c #14130B",
"%  c #121409",
"&  c #14150A",
"*  c #15150B",
"=  c #14140C",
"-  c #15140C",
";  c #17140C",
":  c #17160D",
">  c #17170E",
",  c #1B150D",
"<  c #1E150D",
"1  c #1D160D",
"2  c #1F160E",
"3  c #17190A",
"4  c #1A180E",
"5  c #1B180E",
"6  c #1B190E",
"7  c #1A180F",
"8  c #1A1A0E",
"9  c #1C1A0F",
"0  c #1B1F0C",
"q  c #1C1C0E",
"w  c #1C1D10",
"e  c #1F1F11",
"r  c #21170E",
"t  c #21160F",
"y  c #22170F",
"u  c #211710",
"i  c #241810",
"p  c #261E12",
"a  c #2C1A12",
"s  c #2C1B12",
"d  c #281C12",
"f  c #2D1C12",
"g  c #1F200E",
"h  c #1E240D",
"j  c #20270E",
"k  c #21280D",
"l  c #252E0F",
"z  c #262013",
"x  c #232412",
"c  c #252615",
"v  c #292515",
"b  c #282A17",
"n  c #292A17",
"m  c #292C14",
"M  c #2E2819",
"N  c #302215",
"B  c #312117",
"V  c #312216",
"C  c #332216",
"Z  c #362518",
"A  c #372618",
"S  c #332919",
"D  c #352D1A",
"F  c #372C1B",
"G  c #312A1D",
"H  c #382819",
"J  c #3A291B",
"K  c #392B1B",
"L  c #3C2C1B",
"P  c #2C3710",
"I  c #323515",
"U  c #303518",
"Y  c #30301C",
"T  c #31321D",
"R  c #35311D",
"E  c #3A351B",
"W  c #3D301E",
"Q  c #30391A",
"!  c #3D3722",
"~  c #3F3A24",
"^  c #41311E",
"/  c #40341F",
"(  c #453520",
")  c #463621",
"_  c #463523",
"`  c #413926",
"'  c #443824",
"]  c #4C3D24",
"[  c #4F3E26",
"{  c #4E3F26",
"}  c #4F3F26",
"|  c #4B3E2C",
" . c #513E2C",
".. c #3E481F",
"X. c #404B1F",
"o. c #42511C",
"O. c #4B601D",
"+. c #5D7E1C",
"@. c #5F7E1E",
"#. c #464820",
"$. c #4D422B",
"%. c #4F4728",
"&. c #474D28",
"*. c #534E24",
"=. c #534E25",
"-. c #514128",
";. c #55442B",
":. c #55432F",
">. c #55452D",
",. c #56452C",
"<. c #56462D",
"1. c #56442F",
"2. c #5A472C",
"3. c #5B472D",
"4. c #59482F",
"5. c #555224",
"6. c #575625",
"7. c #534531",
"8. c #5C4A31",
"9. c #5E4A31",
"0. c #5C4B32",
"q. c #5D4C33",
"w. c #564A3A",
"e. c #624E33",
"r. c #614F36",
"t. c #654D34",
"y. c #694F38",
"u. c #685334",
"i. c #685235",
"p. c #695237",
"a. c #695439",
"s. c #6B543B",
"d. c #68553C",
"f. c #6B583E",
"g. c #6E583C",
"h. c #735A3F",
"j. c #745A3D",
"k. c #755B3E",
"l. c #7A5F3E",
"z. c #4D6021",
"x. c #5C6224",
"c. c #667126",
"v. c #617E24",
"b. c #6E5B42",
"n. c #6F5B42",
"m. c #765B42",
"M. c #755E43",
"N. c #765F44",
"B. c #775F44",
"V. c #795F42",
"C. c #7B6145",
"Z. c #7B6247",
"A. c #7F6344",
"S. c #8F7123",
"D. c #86663B",
"F. c #806447",
"G. c #856849",
"H. c #886B4E",
"J. c #8D6E4D",
"K. c #8D6D4F",
"L. c #8F7150",
"P. c #927051",
"I. c #967353",
"U. c #987655",
"Y. c #A57F59",
"T. c #678F1E",
"R. c #69931E",
"E. c #6B951F",
"W. c #638122",
"Q. c #668022",
"!. c #6A8426",
"~. c #678924",
"^. c #6D8F21",
"/. c #6E9920",
"(. c #729F21",
"). c #71922B",
"_. c #74A021",
"`. c #75A221",
"'. c #78A622",
"]. c #7AA923",
"[. c #7AAA23",
"{. c #7BA824",
"}. c #7DA62B",
"|. c #7FB025",
" X c #86B727",
".X c #87B727",
"XX c #86B826",
"oX c #86B926",
"OX c #86B827",
"+X c #89BD27",
"@X c #8ABE27",
"#X c #8BBE27",
"$X c #8BC026",
"%X c #8AC027",
"&X c #8BC027",
"*X c #8BC127",
"=X c #98CC37",
"-X c #A68157",
";X c #AC865D",
":X c #AE865E",
">X c #B68D5F",
",X c #B48C60",
"<X c #BD9263",
"1X c #A4D646",
"2X c #B8E464",
"3X c #BCED63",
"4X c #C0EF68",
"5X c None",
/* pixels */
"5X5X5X5X5X5X5X5X5X5X5X5X5X5X5X5X5X5X5X5X5X5X5X5X5X5X5X5X5X5X5X5X",
"5X5X5X5X5X5X5X5X5X5X5X5X5X5X5X5X5X5X5X5X5X5X5X5X5X5X5X5X5X5X5X5X",
"5X5X5X5X5X5X5X5X5X5X5X5X5X5X5X5X5X5X5X5X5X5X5X5X5X5X5X5X5X5X5X5X",
"5X5X5X5X5X5X5X5X5X5X5X5X5X5X5X5X5X5X5X5X5X5X5X5X5X5X5X5X5X5X5X5X",
"5X5X5X5X5X5X5X5X5X5X5X5X5X5X5X5X5X5X5X5X5X5X5X5X5X5X5X5X5X5X5X5X",
"5X5X5X5X5X5X5X5X5X5X5X5X5X5X5X5Xo 5X5X5X5X5X5X5X5X5X5X5X5X5X5X5X",
"5X5X5X5X5X5X5X5X5X5X5X5X5X5X5Xs 5X. 5X5X5X5X5X5X5X5X5X5X5X5X5X5X",
"5X5X5X5X5X5X5X5X5X5X5X5X5X5Xw 2 1 - 5X5X5X5X5X5X5X5X5X5X5X5X5X5X",
"5X5X5X5X5X5X5X5X5X5X5X5X5X#.^.o x.6.5X5X5X5X5X5X5X5X5X5X5X5X5X5X",
"5X5X5X5X5X5X5X5X5X5X5X5Xc /.&X=..X`.m o 5X5X5X5X5X5X5X5X5X5X5X5X",
"5X5X5X5X5X5X5X5X5XOXoXo.D %X*X&X%X&Xc.x (.XX& 5X5X5X5X5X5X5X5X5X",
"5X5X5X5X5X5X5X5X5X5X* U  X'.%X&X&X&X{.W.0 5X5X5X5X5X5X5X5X5X5X5X",
"5X5X5X5X5X5X5X5X5X5X5X5XX.&X&X&X&X$X).> 5X5X5X5X5X5X5X5X5X5X5X5X",
"5X5X5X5X5X5X5X5X5X5X5X5X8 z.[.&X%XE.n 5X5X5X5X5X5X5X5X5X5X5X5X5X",
"5X5X5X5X5X5X5X5X5X5X5X5Xo b v.].R...v G.t.5X5X5X5X5X5X5X5X5X5X5X",
"5X5X5X5X5X5X5X5X5X5XG A.e./ ~ &.Y M 8.L.>Xh.5X5X5X5X5X5X5X5X5X5X",
"5X5X5X5X5X5X5X5X5X$ -X<Xf.{ ;.d.d.[ } q.s.%.P 5X5X5X5X5X5X5X5X5X",
"5X5X5X5X5X5X5X5X5XT R Z.} } } [ -.} }  .o *.3Xk 5X5X5X5X5X5X5X5X",
"5X5X5X5X5X5X5X5Xj 2Xe d 0.[ ,.} I.} r.y.+ 6 @X5.5X5X5X5X5X5X5X5X",
"5X5X5X5X5X5X5X5XQ 4Xh i H.F.P.} N.;Xa.B 5X5X+XR.5X5X5X5X5X5X5X5X",
"5X5X5X5X5X5X5X5X!.@Xq 5XF g.B.} 4.n.^   5X~.|.I 5X5X5X5X5X5X5X5X",
"5X5X5X5X5X5X5X5X/.T.5X5Xr W w.S.l.` C % 5XO.1Xg 5X5X5X5X5X5X5X5X",
"5X5X5X5X5X5X5X5XQ._.5X+ ( H ! D.$.K ) p 5XE +.5X5X5X5X5X5X5X5X5X",
"5X5X5X5X5X5X5X5Xl =X}.o k.} b.n.n.<.3.:.5X5X5X5X5X5X5X5X5X5X5X5X",
"5X5X5X5X5X5X5X5X9 #X@.o S Y.U.2.M.,Xp.O 5X5X5X5X5X5X5X5X5X5X5X5X",
"5X5X5X5X5X5X5X5X5X3 * >.O = 4 7 5 : f r o 5X5X5X5X5X5X5X5X5X5X5X",
"5X5X5X5X5X5X5X5X5X5Xo J.C.| 5X5X5X+ a s + 5X5X5X5X5X5X5X5X5X5X5X",
"5X5X5X5X5X5X5X5X5XO t V A ; 5X5X5Xo ' u.7.5X5X5X5X5X5X5X5X5X5X5X",
"5X5X5X5X5X5X5X5X5Xo L } ) , 5X5X5Xo 1.j.z . 5X5X5X5X5X5X5X5X5X5X",
"5X5X5X5X5X5X5X5X5Xo ] :Xm.< 5X5X5X# y J Z , 5X5X5X5X5X5X5X5X5X5X",
"5X5X5X5X5X5X5X5X5X5X. o X 5X5X5X5Xo _ i.9.N 5X5X5X5X5X5X5X5X5X5X",
"5X5X5X5X5X5X5X5X5X5X5X5X5X5X5X5X5X5Xu K.V.@ 5X5X5X5X5X5X5X5X5X5X",
"5X5X5X5X5X5X5X5X5X5X5X5X5X5X5X5X5X5X5X5X5X5X5X5X5X5X5X5X5X5X5X5X",
"5X5X5X5X5X5X5X5X5X5X5X5X5X5X5X5X5X5X5X5X5X5X5X5X5X5X5X5X5X5X5X5X",
"5X5X5X5X5X5X5X5X5X5X5X5X5X5X5X5X5X5X5X5X5X5X5X5X5X5X5X5X5X5X5X5X",
"5X5X5X5X5X5X5X5X5X5X5X5X5X5X5X5X5X5X5X5X5X5X5X5X5X5X5X5X5X5X5X5X"
};
