/* XPM */
static char *_5389_be5774eeafb50af31f705194b52eeb4391bcb48d5e7b250576ef7e9b1b979157[] = {
/* columns rows colors chars-per-pixel */
"32 36 82 1 ",
"  c #030303",
". c #0C0C0C",
"X c #150F0E",
"o c #131313",
"O c #1B1615",
"+ c #1E1916",
"@ c #1C1C1C",
"# c #221615",
"$ c #281714",
"% c #261917",
"& c #2C1815",
"* c #241D1B",
"= c #2D1B19",
"- c #331D1A",
"; c #381F1C",
": c #25211C",
"> c #33251A",
", c #3C211D",
"< c #3B281C",
"1 c #242323",
"2 c #2C2C2C",
"3 c #332321",
"4 c #3A2523",
"5 c #342C23",
"6 c #3B2A25",
"7 c #3C2D2C",
"8 c #343434",
"9 c #3B3B3B",
"0 c #41231F",
"q c #452521",
"w c #492722",
"e c #402D25",
"r c #4C2924",
"t c #522C26",
"y c #562E28",
"u c #5A2F29",
"i c #423420",
"p c #4A3A23",
"a c #41342D",
"s c #503E26",
"d c #5C312A",
"f c #433331",
"g c #493730",
"h c #443B31",
"j c #4F3D36",
"k c #63332D",
"l c #68362F",
"z c #653D2E",
"x c #6C3831",
"c c #723A33",
"v c #783D35",
"b c #574328",
"n c #594429",
"m c #5E482B",
"M c #4D4231",
"N c #514635",
"B c #5E4F38",
"V c #604B2B",
"C c #6D4131",
"Z c #734433",
"A c #744B33",
"S c #794835",
"D c #735533",
"F c #785735",
"G c #725A33",
"H c #7A5B36",
"J c #7E6338",
"K c #434343",
"L c #4C4C4C",
"P c #545454",
"I c #5B5B5B",
"U c #715E41",
"Y c #756245",
"T c #616161",
"R c #834B3A",
"E c #8C6D3D",
"W c #967541",
"Q c #997742",
"! c #9C7A44",
"~ c #A17E45",
"^ c #AD874A",
"/ c #B28B4C",
/* pixels */
".o@@ooo@OoOoo@1@OO@oXoO@@oo.....",
"1PIIILLITPPILLIPPLIPLLK9KK9822@ ",
"1IITLLLPPLPIL9KPPLPPPPLK99K988@ ",
"1IIPLPIPLL22o@1@1@O@29LLK9KK981 ",
"2TPLPIP881O+==**-==$O@29LKK9K91 ",
"2TPPP9881#&----=r;-==&@29LKK991.",
"@ITP981O+&=;q-=3kr--;=%O@899K91 ",
"@ITP81+=--=;w;-3ur-;q===%@28282.",
"1IP91:-=-,-;r4q3ktq,w,---%@2982 ",
"OPK2#-,--w-0u444ctw0y0,0q=%1991o",
"@I9O=,r,;r,0dqq6cyu0k04yq-;4K98.",
"@P9O-0t00kwwdyy3cyd0kwwkr;q7P98.",
"1IKO,ykrwkrwkyy3cyuwktyluqr8P81.",
"2P8Oryldrlkykyy4cykylkylkudjI81.",
"2I95DzZZCSCzzzdiRZCzSZzZZcAYP91.",
"@K85G^^//^~!EEGV^E^//^~!QEHUPK1.",
"O81*ppsVmVVsppipFpsVmVnVsppNP91.",
".82+>&-;=-;==-*3u,;=-;=-;-,gI82.",
"o91X=->q=-0q-;*3kt0-0q-;;;w7PK2.",
"@K2X;w,0-,tw0w-4vkw;0w-00;wfIP8 ",
"@L8O0d0r;0uu,re4vkw0ud0twqwfIL9 ",
"1P8#tkdd0uluqdy3cktulktukddfL99 ",
"@IK5HZSZzzvxzCd6SZZSSSZZZZAUPh9.",
"@PP5GE//^~~~WEGV^E~//^!!QQJBL98.",
"@LK:ppbnVnVsppipFpsnVnpppppMK82.",
"@KP:<0,>;;;;;;-3k0;;;00;;;,aK82 ",
"@K9#0kkkulkkllt4vkllllllkku7K21 ",
"@98@0tyy0ldryd;4ctuyutdudyy6921 ",
"@92+;tty0dw;ty-3xrtrq;rty4q4911.",
"O82*;0,0;0;-,q=3u;w;0-;;q=-381@ ",
"@1@O&&$&#$&$=&#%q$&$$$&$$##:2@@.",
".oX                         o.o.",
"@@@@1@@@@@@@@@ooo1@@@@o@@@@@@ooo",
"ILPPPLLPLPPPIL1@9PLPPP9KPLLIPK@o",
"K8888898888822@@988888988888881o",
"L28811282111@@@@K2882112211111oo"
};
