/* XPM */
static char *_1775_f8cb93cb9a122ae9e1d58efd2e84b1ff191f74c7a9d6cd18f2ba84ff49465c84[] = {
/* columns rows colors chars-per-pixel */
"32 36 99 2 ",
"   c #33984A",
".  c #32984B",
"X  c #33984B",
"o  c #33994B",
"O  c #379D4B",
"+  c #389D4B",
"@  c #399E4C",
"#  c #399F4C",
"$  c #3BA14D",
"%  c #3EA54C",
"&  c #3FA54C",
"*  c #3EA54D",
"=  c #41A54D",
"-  c #41A84C",
";  c #45AD4D",
":  c #48B04D",
">  c #4AB24D",
",  c #4BB34E",
"<  c #4BB44D",
"1  c #4CB54D",
"2  c #4EB74E",
"3  c #50BA4E",
"4  c #53BD4E",
"5  c #4FB250",
"6  c #57B851",
"7  c #5DB853",
"8  c #5CBA52",
"9  c #61BB54",
"0  c #6ABA5D",
"q  c #57C14F",
"w  c #58C44F",
"e  c #59C44F",
"r  c #5AC54E",
"t  c #5AC44F",
"y  c #5AC54F",
"u  c #5BC54F",
"i  c #5BC64E",
"p  c #5AC64F",
"a  c #5BC64F",
"s  c #5CC64F",
"d  c #5CC74F",
"f  c #5FC750",
"g  c #5EC850",
"h  c #63C652",
"j  c #63CA51",
"k  c #61C852",
"l  c #65CB52",
"z  c #67CC52",
"x  c #68CC52",
"c  c #69CC52",
"v  c #69CD53",
"b  c #6ACD53",
"n  c #6BCE53",
"m  c #6CCE53",
"M  c #6ECB56",
"N  c #6DCE56",
"B  c #6DCE57",
"V  c #6FCF56",
"C  c #6ECE57",
"Z  c #70D054",
"A  c #70D055",
"S  c #71D057",
"D  c #74D159",
"F  c #7FD858",
"G  c #7FD85A",
"H  c #86D95B",
"J  c #88DD5B",
"K  c #89DD5B",
"L  c #8BDF5B",
"P  c #95E25E",
"I  c #95E45E",
"U  c #97E55E",
"Y  c #98E55F",
"T  c #99E65F",
"R  c #99E75F",
"E  c #8FDE61",
"W  c #93DF65",
"Q  c #9BE760",
"!  c #9EE763",
"~  c #A0E56A",
"^  c #A6E86C",
"/  c #ACED69",
"(  c #B1EF6C",
")  c #B2F06D",
"_  c #B2F16D",
"`  c #B4F06D",
"'  c #B5F16E",
"]  c #B8F170",
"[  c #BBF271",
"{  c #BDF472",
"}  c #B9F074",
"|  c #CEFA7B",
" . c #D2FC7D",
".. c #D3FC7D",
"X. c #D2FC7E",
"o. c #D3FC7E",
"O. c #D3FD7E",
"+. c #D3FC7F",
"@. c None",
/* pixels */
"@.@.@.@.@.@.@.@.@.@.@.@.@.@.@.@.@.@.@.@.@.@.@.@.@.@.@.@.@.@.@.@.",
"@.@.@.@.@.@.@.@.@.@.@.@.@.@.@.@.@.@.@.@.@.@.@.@.@.@.@.@.@.@.@.@.",
"@.@.@.@.@.@.@.@.@.@.@.@.@.@.@.@.@.@.@.@.@.@.@.@.@.@.@.@.@.@.@.@.",
"@.@.@.@.@.@.@.@.@.@.@.@.@.@.@.@.@.@.@.@.@.@.@.@.@.@.@.@.@.@.@.@.",
"@.@.@.@.@.@.@.@.@.@.@.@.@.@.@.@.@.@.@.@.@.@.@.@.@.@.@.@.@.@.@.@.",
"@.@.@.@.@.@.@.@.@.@.@.@.@.@.@.@.@.@.@.@.@.@.@.@.@.@.@.@.@.@.@.@.",
"@.@.@.@.@.@.@.@.@.@.@.@.@.@.@.@.@.@.@.@.@.@.@.@.@.@.@.@.@.@.@.@.",
"@.@.@.@.@.@.@.@.@.@.@.@.@.@.@.@.@.@.@.@.@.@.@.@.@.@.@.@.@.@.@.@.",
"@.@.@.@.@.@.@.@.@.@.@.@.@.@.@.@.@.@.@.@.@.@.@.@.@.@.@.@.@.@.@.@.",
"@.@.@.@.@.@.@.@.@.@.@.@.@.@.@.@.@.@.@.@.@.@.@.@.@.@.@.@.@.@.@.@.",
"@.@.@.@.@.@.@.@.@.@.@.@.@.@.@.@.@.@.@.@.@.@.@.@.@.@.@.@.@.@.@.@.",
"@.@.@.@.@.@.@.@.@.@.@.@.@.@.X @.@.@.@.@.@.@.@.@.@.@.@.@.@.@.@.@.",
"@.@.@.@.@.@.@.@.@.@.@.@.@.@.@.@.@.@.@.@.@.@.@.@.@.@.@.@.@.@.@.@.",
"@.@.@.@.@.@.@.@.@.@.@.@.@.@.@.@.y @.@.@.@.@.@.@.@.@.@.@.@.@.@.@.",
"@.@.@.@.@.@.@.@.@.@.@.@.@.@.@.I u @.@.@.@.@.@.@.@.@.@.@.@.@.@.@.",
"@.@.@.@.@.@.@.@.@.@.@.@.@.@.@.P , @.@.@.@.@.@.@.@.@.@.@.@.@.@.@.",
"@.@.@.@.@.@.@.@.@.@.@.@.@.@.@.@.  @.@.@.@.@.@.@.@.@.@.@.@.@.@.@.",
"@.@.@.@.@.@.@.@.@.@.@.@.@.@.@.@.@.@.@.@.@.@.@.@.@.@.@.@.@.@.@.@.",
"@.@.@.@.@.@.@.@.@.@.@.@.e @.@.@.@.@.a r @.@.@.@.@.@.@.@.@.@.@.@.",
"@.@.@.@.@.@.@.@.@.@.@.t y @.@.@.@.@.y y @.@.@.@.@.@.@.@.@.@.@.@.",
"@.@.@.@.@.@.@.@.@.@.@.y y @.@.@.@.@.y w @.@.@.@.@.@.@.@.@.@.@.@.",
"@.@.@.@.@.@.@.@.@.@.@.p y @.@.@.@.@.> @.@.@.@.@.@.@.@.@.@.@.@.@.",
"@.@.@.@.@.@.@.@.@.@.@.@.f @.b v @.@.. @.@.@.@.@.@.@.@.@.@.@.@.@.",
"@.@.@.@.@.@.@.@.@.@.@.i m T T U s @.o @.@.@.@.@.@.@.@.@.@.@.@.@.",
"@.@.@.@.@.@.@.@.@.@.@.b I T T U d y @ X @.@.@.@.@.@.@.@.@.@.@.@.",
"@.@.@.@.@.@.@.@.@.@.@.= 7 T I v r y #   @.@.@.@.@.@.@.@.@.@.@.@.",
"@.@.@.@.@.@.@.@.@.@.@.X = G ] ~ ~ k # 9 h @.@.@.@.@.@.@.@.@.@.@.",
"@.@.@.@.@.@.@.@.@.@.@.+ : N X.o.o.W 5 H F 6 @.@.@.@.@.@.@.@.@.@.",
"@.@.@.@.@.@.@.@.@.@.@.% y B o.o.+.o.N L R 8 @.@.@.@.@.@.@.@.@.@.",
"@.@.@.@.@.@.@.@.@.@.@.* u S o.O.o.o.S J Y Z @.@.@.@.@.@.@.@.@.@.",
"@.@.@.@.@.@.@.@.@.r 1 & z ! o.o.O.o.! n K A @.@.@.@.@.@.@.@.@.@.",
"@.@.@.@.@.@.@.@.@.y q 4 c Q / o.o./ Q x l g @.@.@.@.@.@.@.@.@.@.",
"@.@.@.@.@.@.@.@.@.t y C ^ ' Q _ ..{ [ V y < @.@.@.@.@.@.@.@.@.@.",
"@.@.@.@.@.@.@.@.@.3 j E o.| ( )  .o.o.D 2 $ @.@.@.@.@.@.@.@.@.@.",
"@.@.@.@.@.@.@.@.@.- M ` o.+.o.X.o.o.} C ; O @.@.@.@.@.@.@.@.@.@.",
"@.@.@.@.@.@.@.@.@.@.0 o.o.o.o.o.o.o.N y y @.@.@.@.@.@.@.@.@.@.@."
};
