/* XPM */
static char *_9791_77adc614ef850fbe914b1907920e76af766e05f4fc3d5dcec7461ae0d73f55a2[] = {
/* columns rows colors chars-per-pixel */
"32 36 106 2 ",
"   c #33984A",
".  c #33984B",
"X  c #359A4A",
"o  c #359A4B",
"O  c #369B4B",
"+  c #33984C",
"@  c #379C4C",
"#  c #3A9F4B",
"$  c #3A9D4C",
"%  c #3A9F4C",
"&  c #42A44E",
"*  c #43A44E",
"=  c #43AA4D",
"-  c #43AB4D",
";  c #45AE4C",
":  c #4AB24D",
">  c #4DB54E",
",  c #50B94E",
"<  c #51BB4E",
"1  c #4BAB51",
"2  c #56AE56",
"3  c #5AB555",
"4  c #60BB54",
"5  c #61BB54",
"6  c #63BD57",
"7  c #57C14E",
"8  c #59C44F",
"9  c #5AC54F",
"0  c #5BC54F",
"q  c #5BC64F",
"w  c #5AC74F",
"e  c #5CC64F",
"r  c #5CC550",
"t  c #5DC650",
"y  c #5EC650",
"u  c #5EC750",
"i  c #5FC850",
"p  c #5FC950",
"a  c #63C652",
"s  c #6EC557",
"d  c #61C851",
"f  c #65CA53",
"g  c #68CC52",
"h  c #69CD53",
"j  c #6ACD53",
"k  c #6CCE53",
"l  c #6ACC54",
"z  c #6ECE57",
"x  c #76CE57",
"c  c #71C758",
"v  c #70D054",
"b  c #74D356",
"n  c #74D257",
"m  c #73D159",
"M  c #78D359",
"N  c #7BD458",
"B  c #7CD45C",
"V  c #7FD858",
"C  c #83D55A",
"Z  c #80D65E",
"A  c #83DB5A",
"S  c #84DA5A",
"D  c #85DB5A",
"F  c #83D85F",
"G  c #86DC5D",
"H  c #8BDF5B",
"J  c #8BDF5C",
"K  c #93E35D",
"L  c #94E35E",
"P  c #95E45E",
"I  c #97E55E",
"U  c #99E65F",
"Y  c #99E75F",
"T  c #8FDD63",
"R  c #9EDE6C",
"E  c #9CE761",
"W  c #9DE761",
"Q  c #9EE665",
"!  c #9EE861",
"~  c #9FE862",
"^  c #A2E964",
"/  c #A7EB66",
"(  c #A6E86C",
")  c #A9EC68",
"_  c #B5F16E",
"`  c #B1ED70",
"'  c #B3EC72",
"]  c #B5EE72",
"[  c #B8F170",
"{  c #BBF371",
"}  c #BCF371",
"|  c #C3F675",
" . c #C4F676",
".. c #C6F777",
"X. c #C7F777",
"o. c #C6F678",
"O. c #CAF87A",
"+. c #CEFA7B",
"@. c #CEFA7D",
"#. c #D1FB7C",
"$. c #D1FB7D",
"%. c #D2FC7E",
"&. c #D3FC7E",
"*. c #D3FD7E",
"=. c #D3FC7F",
"-. c None",
/* pixels */
"-.-.-.-.-.-.-.-.-.-.-.-.-.-.-.-.-.-.-.-.-.-.-.-.-.-.-.-.-.-.-.-.",
"-.-.-.-.-.-.-.-.-.-.-.-.-.-.-.-.-.-.-.-.-.-.-.-.-.-.-.-.-.-.-.-.",
"-.-.-.-.-.-.-.-.-.-.-.-.-.-.-.-.-.-.-.-.-.-.-.-.-.-.-.-.-.-.-.-.",
"-.-.-.-.-.-.-.-.-.-.-.-.-.-.-.-.-.-.-.-.-.-.-.-.-.-.-.-.-.-.-.-.",
"-.-.-.-.-.-.-.-.-.-.-.-.-.-.-.-.-.-.-.-.-.-.-.-.-.-.-.-.-.-.-.-.",
"-.-.-.-.-.-.-.-.-.-.-.-.-.-.-.-.-.-.-.-.-.-.-.-.-.-.-.-.-.-.-.-.",
"-.-.-.-.-.-.-.-.-.-.-.-.-.-.-.-.-.-.-.-.-.-.-.-.-.-.-.-.-.-.-.-.",
"-.-.-.-.-.-.-.-.-.-.-.-.-.-.-.-.-.-.-.-.-.-.-.-.-.-.-.-.-.-.-.-.",
"-.-.-.-.-.-.-.-.-.-.-.-.-.-.-.-.-.-.-.-.-.-.-.-.-.-.-.-.-.-.-.-.",
"-.-.-.-.-.-.-.-.-.-.-.-.-.-.-.-.-.-.-.-.-.-.-.-.-.-.-.-.-.-.-.-.",
"-.-.-.-.-.-.-.-.-.-.-.-.-.  -.-.-.-.-.-.-.-.-.-.-.-.-.-.-.-.-.-.",
"-.-.-.-.-.-.-.-.-.-.-.-.-.-.-.-.7 -.-.-.-.-.-.-.-.-.-.-.-.-.-.-.",
"-.-.-.-.-.-.-.-.-.-.-.-.-.-.-.-.O -.-.-.-.-.-.-.-.-.-.-.-.-.-.-.",
"-.-.-.-.-.-.-.-.-.-.-.-.-.-.-.-.-.-.-.-.-.-.-.-.-.-.-.-.-.-.-.-.",
"-.-.-.-.-.-.-.-.-.-.-.-.-.-.-.-.-.-.-.-.-.-.-.-.-.-.-.-.-.-.-.-.",
"-.-.-.-.-.-.-.-.-.-.-.-.-.-.-.-.-.-.-.-.-.-.-.-.-.-.-.-.-.-.-.-.",
"-.-.-.-.-.-.-.-.-.-.-.-.-.-.-.-.-.-.-.-.-.-.-.-.-.-.-.-.-.-.-.-.",
"-.-.-.-.-.-.-.-.-.-.-.-.-.-.+ -.-.-.-.-.-.-.-.-.-.-.-.-.-.-.-.-.",
"-.-.-.-.-.-.-.-.-.-.-.-.-.. . . -.-.-.8 -.-.-.-.-.-.-.-.-.-.-.-.",
"-.-.-.-.-.-.-.-.-.-.-.-..   . . -.-.-.-.-.-.-.-.-.-.-.-.-.-.-.-.",
"-.-.-.-.-.-.-.-.-.-.-.a 5 . X : 8 -.-.-.-.-.-.-.-.-.-.-.-.-.-.-.",
"-.-.-.-.-.-.-.-.-.-.S V C $ 4 b b -.-.-.-.-.-.-.-.-.-.-.-.-.-.-.",
"-.-.-.-.-.-.-.-.-.-.U P x * U U / d -.-.-.-.-.-.-.-.-.-.-.-.-.-.",
"-.-.-.-.-.-.-.-.-.-.L A < & P ~ $.f -.-.-.-.-.-.-.-.-.-.-.-.-.-.",
"-.-.-.-.-.-.-.-.-.-.i u < % l @.*.f # -.-.-.-.-.-.-.-.-.-.-.-.-.",
"-.-.-.-.-.-.-.-.-.-.q m ' R f &.&.1 o , -.-.-.-.-.-.-.-.-.-.-.-.",
"-.-.-.-.-.-.-.-.-.-.-.B &.o.G $.T c s N h -.-.-.-.-.-.-.-.-.-.-.",
"-.-.-.-.-.-.-.-.-.-.w z ( _ E [ t K U U k -.-.-.-.-.-.-.-.-.-.-.",
"-.-.-.-.-.-.-.-.-.r 9 y b U Y I e D I U k -.-.-.-.-.-.-.-.-.-.-.",
"-.-.-.-.-.-.-.-.-.9 t n ! W U I e 9 H L j -.-.-.-.-.-.-.-.-.-.-.",
"-.-.-.-.-.-.-.-.-.9 Z O.+...U I e 9 u p q -.-.-.-.-.-.-.-.-.-.-.",
"-.-.-.-.-.-.-.-.-.9 F &.&.#. .| J ` ] z 9 -.-.-.-.-.-.-.-.-.-.-.",
"-.-.-.-.-.-.-.-.-.> M { *.%.&.%.} $.&.6 - -.-.-.-.-.-.-.-.-.-.-.",
"-.-.-.-.-.-.-.-.-.= v ) &.&.&.&.*.&.=.2 . -.-.-.-.-.-.-.-.-.-.-.",
"-.-.-.-.-.-.-.-.-.; j Q %.&.*.&.&.*.X.3 @ -.-.-.-.-.-.-.-.-.-.-.",
"-.-.-.-.-.-.-.-.-.-.0 B &.&.&.&.%.&.^ g -.-.-.-.-.-.-.-.-.-.-.-."
};
