/* XPM */
static char *_4726_1fa058fe091ab30ab9966cd83c1cdbaf859620058469de46ecb5bfc90c6dd53c[] = {
/* columns rows colors chars-per-pixel */
"32 36 110 2 ",
"   c #33984B",
".  c #32994B",
"X  c #33994B",
"o  c #339A4B",
"O  c #34984B",
"+  c #33984C",
"@  c #33984D",
"#  c #389C4C",
"$  c #3CA24B",
"%  c #39A04C",
"&  c #3BA04C",
"*  c #3CA34C",
"=  c #3DA34C",
"-  c #3CA24D",
";  c #3DA34D",
":  c #3DA54C",
">  c #3EA64C",
",  c #3FA64C",
"<  c #40A64C",
"1  c #46A74E",
"2  c #40A84C",
"3  c #43A94C",
"4  c #44AB4D",
"5  c #46A84F",
"6  c #45AC4D",
"7  c #46AE4D",
"8  c #4EB34F",
"9  c #4DB64E",
"0  c #4FB84E",
"q  c #4FB94E",
"w  c #50B94E",
"e  c #50AF50",
"r  c #56B352",
"t  c #55B451",
"y  c #52B850",
"u  c #5CBE51",
"i  c #58C24E",
"p  c #59C24F",
"a  c #58C34F",
"s  c #59C44F",
"d  c #59C54F",
"f  c #5AC54E",
"g  c #5AC44F",
"h  c #5AC54F",
"j  c #5BC54F",
"k  c #5AC64F",
"l  c #5CC64F",
"z  c #5BC550",
"x  c #5AC650",
"c  c #60C152",
"v  c #69C754",
"b  c #62C951",
"n  c #64CB52",
"m  c #65CA53",
"M  c #68CC52",
"N  c #69CC53",
"B  c #69CD53",
"V  c #6BCE53",
"C  c #6EC558",
"Z  c #70CF54",
"A  c #76CA5B",
"S  c #78CB5E",
"D  c #72D155",
"F  c #74D455",
"G  c #78D557",
"H  c #79D557",
"J  c #7FD35A",
"K  c #7FD859",
"L  c #81D45A",
"P  c #82D55B",
"I  c #80D75C",
"U  c #87DD5B",
"Y  c #83D85E",
"T  c #88DD5A",
"R  c #88DC5B",
"E  c #88DD5B",
"W  c #8CDB5C",
"Q  c #8EDD5D",
"!  c #8EE05C",
"~  c #8FE05C",
"^  c #99E65E",
"/  c #98E65F",
"(  c #99E65F",
")  c #93DF65",
"_  c #98E167",
"`  c #9DE566",
"'  c #9EE566",
"]  c #A1E767",
"[  c #A9EC67",
"{  c #A6E86D",
"}  c #AEEE6A",
"|  c #ADEA6F",
" . c #AFED6C",
".. c #B0EE6C",
"X. c #B2EE6F",
"o. c #ABE571",
"O. c #B7EF73",
"+. c #B9F270",
"@. c #B8F073",
"#. c #BFF473",
"$. c #C3F676",
"%. c #C6F777",
"&. c #CBF97A",
"*. c #CDFA7B",
"=. c #CFFA7D",
"-. c #D2FC7E",
";. c #D3FC7E",
":. c #D3FD7E",
">. c #D3FC7F",
",. c None",
/* pixels */
",.,.,.,.,.,.,.,.,.,.,.,.,.,.,.,.,.,.,.,.,.,.,.,.,.,.,.,.,.,.,.,.",
",.,.,.,.,.,.,.,.,.,.,.,.,.,.,.,.,.,.,.,.,.,.,.,.,.,.,.,.,.,.,.,.",
",.,.,.,.,.,.,.,.,.,.,.,.,.,.,.,.,.,.,.,.,.,.,.,.,.,.,.,.,.,.,.,.",
",.,.,.,.,.,.,.,.,.,.,.,.,.,.,.,.,.,.,.,.,.,.,.,.,.,.,.,.,.,.,.,.",
",.,.,.,.,.,.,.,.,.,.,.,.,.,.,.,.,.,.,.,.,.,.,.,.,.,.,.,.,.,.,.,.",
",.,.,.,.,.,.,.,.,.,.,.,.,.,.,.,.,.,.,.,.,.,.,.,.,.,.,.,.,.,.,.,.",
",.,.,.,.,.,.,.,.,.,.,.,.,.,.,.,.,.,.,.,.,.,.,.,.,.,.,.,.,.,.,.,.",
",.,.,.,.,.,.,.,.,.,.,.,.,.,.,.,.,.,.,.,.,.,.,.,.,.,.,.,.,.,.,.,.",
",.,.,.,.,.,.,.,.,.,.,.,.,.,.,.,.,.,.,.,.,.,.,.,.,.,.,.,.,.,.,.,.",
",.,.,.,.,.,.,.,.,.,.,.,.,.,.,.,.,.,.,.,.,.,.,.,.,.,.,.,.,.,.,.,.",
",.,.,.,.,.,.,.,.,.,.,.,.,.,.,.,.,.,.,.,.o ,.,.,.,.,.,.,.,.,.,.,.",
",.,.,.,.,.,.,.,.,.,.,.,.,.,.,.,.,.,.,.,.O ,.,.,.,.,.,.,.,.,.,.,.",
",.,.,.,.,.,.,.,.,.,.,.,.,.,.,.,.,.,.,.,.,.,.,.,.,.,.,.,.,.,.,.,.",
",.,.,.,.,.,.,.,.,.,.,.,.,.,.,.,.,.,.,.,.,.,.,.,.,.,.,.,.,.,.,.,.",
",.,.,.,.,.,.,.,.,.,.,.,.,.    1 Z b g ,.,.,.,.,.,.,.,.,.,.,.,.,.",
",.,.,.,.,.,.,.,.,.,.,.,.,.    C / U h h ,.,.,.,.,.,.,.,.,.,.,.,.",
",.,.,.,.,.,.,.,.,.,.,.,.,.,.,.W ( E h h ,.,.,.,.,.,.,.,.,.,.,.,.",
",.,.,.,.,.,.,.,.,.,.,.,.,.,.,.F v t 4 ,.,.,.,.,.,.,.,.,.,.,.,.,.",
",.,.,.,.,.,.,.,.,.,.,.,.,.,.,.,.6   @ ,.,.,.,.,.,.,.,.,.,.,.,.,.",
",.,.,.,.,.,.,.,.,.,.,.,.,.,.,.,.,.. ,.,.,.,.,.,.,.,.,.,.,.,.,.,.",
",.,.,.,.,.,.,.,.,.,.,.,.,.,.,.,.,.O ,.,.,.,.,.,.,.,.,.,.,.,.,.,.",
",.,.,.,.,.,.,.,.,.,.,.,.,.,.,.,.,.    ,.,.,.,.g x ,.,.,.,.,.,.,.",
",.,.,.,.,.,.,.,.,.,.,.,.,.k h ,.,.    ,.,.,.,.h j ,.,.,.,.,.,.,.",
",.,.,.,.,.,.,.,.,.,.,.,.,.h h d 3     ,.,.,.,.0 j ,.,.,.,.,.,.,.",
",.,.,.,.,.,.,.,.,.,.,.,.f h n B u 5 ; ,.,.,.,.: h ,.,.,.,.,.,.,.",
",.,.,.,.,.,.,.,.,.,.,.,.j a R ( ^ E h h ,.,.  o ,.,.,.,.,.,.,.,.",
",.,.,.,.,.,.,.,.,.,.,.,.,.% J ( ( T h h * +     ,.,.,.,.,.,.,.,.",
",.,.,.,.,.,.,.,.,.,.,.,.,.  c ' #. .K l q - , w z g ,.,.,.,.,.,.",
",.,.,.,.,.,.,.,.,.,.,.,.,.  S O.>.&...) m 2 7 g h h h ,.,.,.,.,.",
",.,.,.,.,.,.,.,.,.,.,.,.,.> o.;.-.;.;.;.I 8 y V M h h ,.,.,.,.,.",
",.,.,.,.,.,.,.,.,.,.,.,.h h | =.:.;.;.;.[ D G ( ! h p ,.,.,.,.,.",
",.,.,.,.,.,.,.,.,.,.,.$ h h m { ;.;.-.;.*.Y G ( ! s = ,.,.,.,.,.",
",.,.,.,.,.,.,.,.,.,.,.w h h H X.;.>.;.;.;.] ~ P e < ,.,.,.,.,.,.",
",.,.,.,.,.,.,.,.,.,.,.h h h ` %.:.;.;.;.;.} L r   X ,.,.,.,.,.,.",
",.,.,.,.,.,.,.,.,.,.,.i w N @.-.;.;.;.;.:.+.A &   . ,.,.,.,.,.,.",
",.,.,.,.,.,.,.,.,.,.,.,.# Q $.;.;.;.:.;.;.;._ 9   ,.,.,.,.,.,.,."
};
