/* XPM */
static char *_147_7444bbeb1cf12d6af0df2aa28204f6ce0992fbc93735dc440e7dc8fbcba8cb07[] = {
/* columns rows colors chars-per-pixel */
"32 36 110 2 ",
"   c #34974B",
".  c #33984A",
"X  c #32984B",
"o  c #33984B",
"O  c #33994B",
"+  c #34994B",
"@  c #35994B",
"#  c #359A4B",
"$  c #369B4B",
"%  c #33984C",
"&  c #389F4A",
"*  c #399F4B",
"=  c #3A9E4C",
"-  c #3CA24C",
";  c #41A44D",
":  c #40A74C",
">  c #43AB4C",
",  c #42AA4D",
"<  c #44AC4D",
"1  c #45AE4D",
"2  c #46AE4D",
"3  c #47AE4D",
"4  c #4AB34D",
"5  c #4DB74E",
"6  c #51BB4E",
"7  c #55BC4E",
"8  c #54BE4E",
"9  c #54BF4F",
"0  c #65BE58",
"q  c #68BB5B",
"w  c #6ABA5D",
"e  c #56C04F",
"r  c #5AC54D",
"t  c #59C54E",
"y  c #59C54F",
"u  c #5AC54E",
"i  c #5AC44F",
"p  c #5AC54F",
"a  c #5BC54F",
"s  c #5BC64F",
"d  c #5AC550",
"f  c #5BC650",
"g  c #5FC550",
"h  c #5EC750",
"j  c #5FC850",
"k  c #60C850",
"l  c #60C851",
"z  c #61C951",
"x  c #62C951",
"c  c #64CA51",
"v  c #66CA52",
"b  c #66CB52",
"n  c #66CA54",
"m  c #67CB54",
"M  c #68CC52",
"N  c #69CC52",
"B  c #68CD53",
"V  c #6BCE53",
"C  c #6CCE52",
"Z  c #6CCE53",
"A  c #70C657",
"S  c #6FD054",
"D  c #6FD055",
"F  c #70D054",
"G  c #78D35B",
"H  c #7CD45C",
"J  c #7CD55C",
"K  c #82D55B",
"L  c #80D959",
"P  c #84DB5A",
"I  c #85DB5A",
"U  c #85DA5C",
"Y  c #85DA5D",
"T  c #89DD5B",
"R  c #8BDF5B",
"E  c #8DE05C",
"W  c #8EE05C",
"Q  c #8FE05E",
"!  c #92E25D",
"~  c #97E55E",
"^  c #99E65E",
"/  c #99E65F",
"(  c #99E75F",
")  c #98E461",
"_  c #9BE760",
"`  c #9EE862",
"'  c #A0E963",
"]  c #A3EA64",
"[  c #A6EA66",
"{  c #B2F06D",
"}  c #B3F06D",
"|  c #B5F06E",
" . c #B6EF73",
".. c #B9F270",
"X. c #BDF472",
"o. c #BFF473",
"O. c #BCF175",
"+. c #C0F376",
"@. c #C6F777",
"#. c #C7F777",
"$. c #C6F679",
"%. c #C7F878",
"&. c #C7F879",
"*. c #CCF97B",
"=. c #CFFA7C",
"-. c #D0FB7D",
";. c #D3FC7E",
":. c #D3FD7E",
">. c #D3FC7F",
",. c None",
/* pixels */
",.,.,.,.,.,.,.,.,.,.,.,.,.,.,.,.,.,.,.,.,.,.,.,.,.,.,.,.,.,.,.,.",
",.,.,.,.,.,.,.,.,.,.,.,.,.,.,.,.,.,.,.,.,.,.,.,.,.,.,.,.,.,.,.,.",
",.,.,.,.,.,.,.,.,.,.,.,.,.,.,.,.,.,.,.,.,.,.,.,.,.,.,.,.,.,.,.,.",
",.,.,.,.,.,.,.,.,.,.,.,.,.,.,.,.,.,.,.,.,.,.,.,.,.,.,.,.,.,.,.,.",
",.,.,.,.,.,.,.,.,.,.,.,.,.,.,.,.,.,.,.,.,.,.,.,.,.,.,.,.,.,.,.,.",
",.,.,.,.,.,.,.,.,.,.,.,.,.,.,.,.,.,.,.,.,.,.,.,.,.,.,.,.,.,.,.,.",
",.,.,.,.,.,.,.,.,.,.,.,.,.,.,.,.,.,.,.,.,.,.,.,.,.,.,.,.,.,.,.,.",
",.,.,.,.,.,.,.,.,.,.,.,.,.,.,.,.,.,.,.,.,.,.,.,.,.,.,.,.,.,.,.,.",
",.,.,.,.,.,.,.,.,.,.,.,.,.,.,.,.,.,.,.,.,.,.,.,.,.,.,.,.,.,.,.,.",
",.,.,.,.,.,.,.,.,.,.,.,.,.,.,.,.,.,.,.,.,.,.,.,.,.,.,.,.,.,.,.,.",
",.,.,.,.,.,.,.,.,.,.,.,.,.,.,.,.,.,.,.,.,.,.,.,.,.,.,.,.,.,.,.,.",
",.,.,.,.,.,.,.,.,.,.,.,.,.,.,.,.,.,.,.,.,.,.,.,.,.,.,.,.,.,.,.,.",
",.,.,.,.,.,.,.,.,.,.,.,.,.,.y ,.,.,.u ,.,.,.,.,.,.,.,.,.,.,.,.,.",
",.,.,.,.,.,.,.,.,.,.,.,.,.,.,.,.,.,.p - ,.,.,.,.,.,.,.,.,.,.,.,.",
",.,.,.,.,.,.,.,.,.,.,.,.,.,.,.,.,.,.,.# ,.,.,.,.,.,.,.,.,.,.,.,.",
",.,.,.,.,.,.,.,.,.,.,.,.% ,.,.,.t ,.,.,.,.,.,.,.,.,.,.,.,.,.,.,.",
",.,.,.,.,.,.,.,.,.,.,.+ X o ,.,.D ,.,.,.,.,.,.,.,.,.,.,.,.,.,.,.",
",.,.,.,.,.,.,.,.,.,.,.o O @ ,./ / / ,.,.,.,.,.,.,.,.,.,.,.,.,.,.",
",.,.,.,.,.,.,.,.,.,.,.o . ; / / / / b ,.,.,.,.,.,.,.,.,.,.,.,.,.",
",.,.,.,.,.,.,.,.,.,.,.  o ,./ / / / c ,.,.,.,.,.,.,.,.,.,.,.,.,.",
",.,.,.,.,.,.,.,.,.,.,.,.,.,.L / / A g ,.,.,.,.,.,.,.,.,.,.,.,.,.",
",.,.,.,.,.,.,.,.,.,.,.,.,.,.j K K = ,.,.,.,.,.,.,.,.,.,.,.,.,.,.",
",.,.,.,.,.,.,.,.,.,.,.,.,.,.,.o o o ,.,.,.,.,.,.,.,.,.,.,.,.,.,.",
",.,.,.,.,.,.,.,.,.,.,.,.,.,.,.6 6 $ ,.p r i ,.,.,.,.,.,.,.,.,.,.",
",.,.,.,.,.,.,.,.,.,.,.d d 7 * u p 4 & 9 p p ,.,.,.,.,.,.,.,.,.,.",
",.,.,.,.,.,.,.,.,.,.f i p e , p p p < 8 p p ,.,.,.,.,.,.,.,.,.,.",
",.,.,.,.,.,.,.,.,.,.p h m m n p p l z s p ,.,.,.,.,.,.,.,.,.,.,.",
",.,.,.,.,.,.,.,.,.,.i G $.$.O.p p E ! v a ,.,.,.,.,.,.,.,.,.,.,.",
",.,.,.,.,.,.,.,.,.,.0  .;.;.*.I P ~ / T b < ,.,.,.,.,.,.,.,.,.,.",
",.,.,.,.,.,.,.,.,.,.w ;.;.=...} { _ ( / C : ,.,.,.,.,.,.,.,.,.,.",
",.,.,.,.,.,.,.,.,.,.q +.-.o.` ;.;.` ^ W N 2 > ,.,.,.,.,.,.,.,.,.",
",.,.,.,.,.,.,.,.,.,.,.J #.^ ` ;.;.` / M p a u ,.,.,.,.,.,.,.,.,.",
",.,.,.,.,.,.,.,.,.,.,.S ] ' &.;.;.%.@.) R V p ,.,.,.,.,.,.,.,.,.",
",.,.,.,.,.,.,.,.,.,.1 x U X.;.>.;.;.;.[ / F 5 ,.,.,.,.,.,.,.,.,.",
",.,.,.,.,.,.,.,.,.o : k Y >.:.;.;.;.;.| Q B 3 ,.,.,.,.,.,.,.,.,.",
",.,.,.,.,.,.,.,.,.o : Z [ ;.;.;.;.>.:.;.H i ,.,.,.,.,.,.,.,.,.,."
};
