/* XPM */
static char *_8669_e74ded70bf7e5d3e0a51f3d006786315d6d7079b971f217b89aa2ec6b68e7e22[] = {
/* columns rows colors chars-per-pixel */
"32 36 111 2 ",
"   c #33974B",
".  c #33984A",
"X  c #33994A",
"o  c #33984B",
"O  c #339A4A",
"+  c #34994A",
"@  c #369A4B",
"#  c #369B4B",
"$  c #34984C",
"%  c #3A9D4C",
"&  c #399F4C",
"*  c #399F4D",
"=  c #3A9E4C",
"-  c #3B9F4C",
";  c #3D9F4D",
":  c #3FA14D",
">  c #3CA34C",
",  c #3DA34C",
"<  c #3EA54C",
"1  c #3EA54D",
"2  c #3FA64C",
"3  c #40A74C",
"4  c #44A64E",
"5  c #42A94D",
"6  c #43AB4D",
"7  c #45A94E",
"8  c #49B14C",
"9  c #4BB64E",
"0  c #4DB64E",
"q  c #4DB84D",
"w  c #4FB94E",
"e  c #52BB4E",
"r  c #53BD4E",
"t  c #54BE4E",
"y  c #4CAB50",
"u  c #4FB150",
"i  c #51B451",
"p  c #5BBA53",
"a  c #5CBD51",
"s  c #57C24E",
"d  c #59C34F",
"f  c #59C54E",
"g  c #59C44F",
"h  c #5AC54E",
"j  c #5AC44F",
"k  c #5AC54F",
"l  c #5BC54F",
"z  c #5AC64F",
"x  c #5AC550",
"c  c #5AC750",
"v  c #5CC650",
"b  c #5CC750",
"n  c #5EC750",
"m  c #63C752",
"M  c #64C054",
"N  c #60C850",
"B  c #60C851",
"V  c #63CA51",
"C  c #61C852",
"Z  c #62C952",
"A  c #64CA52",
"S  c #65CA53",
"D  c #68CC52",
"F  c #68CB54",
"G  c #69CC54",
"H  c #6BCD56",
"J  c #6FCF56",
"K  c #75CA58",
"L  c #6FD055",
"P  c #70D054",
"I  c #71D054",
"U  c #72D056",
"Y  c #74D356",
"T  c #7CD059",
"R  c #7CD45D",
"E  c #7FD958",
"W  c #80D45A",
"Q  c #83D55B",
"!  c #87DD5B",
"~  c #89DE5B",
"^  c #8BDF5B",
"/  c #89DC5F",
"(  c #8CDF5C",
")  c #8DDE5E",
"_  c #8EE05C",
"`  c #97E45F",
"'  c #98E55F",
"]  c #99E65E",
"[  c #98E65F",
"{  c #99E65F",
"}  c #99E75F",
"|  c #8CDC62",
" . c #95E260",
".. c #9EE861",
"X. c #9FE861",
"o. c #9EE469",
"O. c #A6EB66",
"+. c #A6EB67",
"@. c #B6F16F",
"#. c #B5EE72",
"$. c #B8EF73",
"%. c #BFF473",
"&. c #C9F87A",
"*. c #CEFA7A",
"=. c #CEFA7B",
"-. c #D0FB7C",
";. c #D2FC7E",
":. c #D3FC7E",
">. c #D3FD7E",
",. c #D3FC7F",
"<. c None",
/* pixels */
"<.<.<.<.<.<.<.<.<.<.<.<.<.<.<.<.<.<.<.<.<.<.<.<.<.<.<.<.<.<.<.<.",
"<.<.<.<.<.<.<.<.<.<.<.<.<.<.<.<.<.<.<.<.<.<.<.<.<.<.<.<.<.<.<.<.",
"<.<.<.<.<.<.<.<.<.<.<.<.<.<.<.<.<.<.<.<.<.<.<.<.<.<.<.<.<.<.<.<.",
"<.<.<.<.<.<.<.<.<.<.<.<.<.<.<.<.<.<.<.<.<.<.<.<.<.<.<.<.<.<.<.<.",
"<.<.<.<.<.<.<.<.<.<.<.<.<.<.<.<.<.<.<.<.<.<.<.<.<.<.<.<.<.<.<.<.",
"<.<.<.<.<.<.<.<.<.<.<.<.<.<.<.<.<.<.<.<.<.<.<.<.<.<.<.<.<.<.<.<.",
"<.<.<.<.<.<.<.<.<.<.<.<.<.<.<.<.<.<.<.<.<.<.<.<.<.<.<.<.<.<.<.<.",
"<.<.<.<.<.<.<.<.<.<.<.<.<.<.<.<.<.<.<.<.<.<.<.<.<.<.<.<.<.<.<.<.",
"<.<.<.<.<.<.<.<.<.<.<.<.<.<.<.<.<.<.<.<.<.<.<.<.<.<.<.<.<.<.<.<.",
"<.<.<.<.<.<.<.<.<.<.<.<.<.<.<.<.<.<.<.<.<.<.<.<.<.<.<.<.<.<.<.<.",
"<.<.<.<.<.<.<.<.<.<.<.<.<.<.<.<.<.c <.<.<.<.<.<.<.<.<.<.<.<.<.<.",
"<.<.<.<.<.<.<.<.<.<.<.<.<.<.<.<.<.<.<.<.<.<.<.<.<.<.<.<.<.<.<.<.",
"<.<.<.<.<.<.<.<.<.<.<.<.<.<.<.<.<.<.<.<.<.<.<.<.<.<.<.<.<.<.<.<.",
"<.<.<.<.<.<.<.<.<.<.<.<.<.<.<.<.<.<.<.<.<.<.<.<.<.<.<.<.<.<.<.<.",
"<.<.<.<.<.<.<.<.<.<.<.<.<.<.$ O <.<.<.<.<.<.<.<.<.<.<.<.<.<.<.<.",
"<.<.<.<.<.<.<.<.<.<.<.<.<.  o o <.<.<.<.<.<.<.<.<.<.<.<.<.<.<.<.",
"<.<.<.<.<.<.<.<.<.<.<.<.<.o o . <.<.<.<.<.<.<.<.<.<.<.<.<.<.<.<.",
"<.<.<.<.<.<.<.<.<.<.<.<.<.<.o <.<.<.<.<.<.<.<.<.<.<.<.<.<.<.<.<.",
"<.<.<.<.<.<.<.<.<.<.<.<.<.<.<.<.k f <.<.<.<.<.<.<.<.<.<.<.<.<.<.",
"<.<.<.<.<.<.<.<.<.<.<.<.<.<.<.l k k <.<.<.<.<.<.<.<.<.<.<.<.<.<.",
"<.<.<.<.<.<.<.<.<.<.<.<.<.<.<.v o.C z <.<.<.<.<.<.<.<.<.<.<.<.<.",
"<.<.<.<.<.<.<.<.<.<.<.<.j k <.B -.S k 5 <.<.<.<.<.<.<.<.<.<.<.<.",
"<.<.<.<.<.<.<.<.<.<.<.<.k k <.<.#.Z e * <.<.<.<.<.<.<.<.<.<.<.<.",
"<.<.<.<.<.<.<.<.<.<.<.<.k x <.<.g s & % <.<.<.<.<.<.<.<.<.<.<.<.",
"<.<.<.<.<.<.<.<.<.<.<.2 h t   + d - X T ` <.<.<.<.<.<.<.<.<.<.<.",
"<.<.<.<.<.<.<.<.<.<.<.@ 6 t # e ! W : Q { Y <.<.<.<.<.<.<.<.<.<.",
"<.<.<.<.<.<.<.<.<.<.<.& 0 t = E ' { K U Y V <.<.<.<.<.<.<.<.<.<.",
"<.<.<.<.<.<.<.<.<.<.a M L t ; { } [ ] D l w <.<.<.<.<.<.<.<.<.<.",
"<.<.<.<.<.<.<.<.<.<.P { _ m 7 { ] ^ ~ A r > <.<.<.<.<.<.<.<.<.<.",
"<.<.<.<.<.<.<.<.<.<.I { ' ^ N ..X.G b k 1 o <.<.<.<.<.<.<.<.<.<.",
"<.<.<.<.<.<.<.<.<.<.P [ ( n S *.=.&.H k < o <.<.<.<.<.<.<.<.<.<.",
"<.<.<.<.<.<.<.<.<.<.i y u F $.:.,.:. .A r , <.<.<.<.<.<.<.<.<.<.",
"<.<.<.<.<.<.<.<.<.<.<.. 4 ) :.>.:.:.%.J h w <.<.<.<.<.<.<.<.<.<.",
"<.<.<.<.<.<.<.<.<.<.<.6 p @.:.:.>.:.:./ Y V 9 <.<.<.<.<.<.<.<.<.",
"<.<.<.<.<.<.<.<.<.<.q Z | :.:.:.,.:.:.+.{ I 8 <.<.<.<.<.<.<.<.<.",
"<.<.<.<.<.<.<.<.<.<.3 R :.;.:.:.;.:.:.O.{ P k <.<.<.<.<.<.<.<.<."
};
