/* XPM */
static char *_1022_3b4a046ee10659f9a25eb5c88be89f524095e887432d8fbd51691cb07e84d5bf[] = {
/* columns rows colors chars-per-pixel */
"32 36 120 2 ",
"   c #33964B",
".  c #32974B",
"X  c #33974B",
"o  c #32974C",
"O  c #33984A",
"+  c #32984B",
"@  c #33984B",
"#  c #33994B",
"$  c #329A4B",
"%  c #359A4B",
"&  c #34984C",
"*  c #35984C",
"=  c #3AA04C",
"-  c #3BA04C",
";  c #3AA14C",
":  c #3DA44C",
">  c #3EA44C",
",  c #3EA54C",
"<  c #40A44D",
"1  c #42A44E",
"2  c #44A54E",
"3  c #43AA4D",
"4  c #44AA4C",
"5  c #46AE4D",
"6  c #4AB24D",
"7  c #4AB34D",
"8  c #4BB44E",
"9  c #4EB84E",
"0  c #50B84E",
"q  c #50B94E",
"w  c #53BD4E",
"e  c #53BD4F",
"r  c #54BE4E",
"t  c #4CAB50",
"y  c #4FB050",
"u  c #58B452",
"i  c #58B552",
"p  c #5DB953",
"a  c #59C34E",
"s  c #58C54E",
"d  c #5AC54E",
"f  c #5AC44F",
"g  c #5AC54F",
"h  c #5BC54F",
"j  c #5CC151",
"k  c #5CC750",
"l  c #5DC751",
"z  c #5EC750",
"x  c #5FC950",
"c  c #62C652",
"v  c #6CC456",
"b  c #60C851",
"n  c #64CA51",
"m  c #66CA53",
"M  c #67CC52",
"N  c #67CC53",
"B  c #67CB54",
"V  c #6CCD56",
"C  c #70CF57",
"Z  c #6FD054",
"A  c #7BD657",
"S  c #72D059",
"D  c #73D059",
"F  c #7ED05A",
"G  c #7BD458",
"H  c #7AD459",
"J  c #7CD758",
"K  c #7CD659",
"L  c #7ED858",
"P  c #8CDF5C",
"I  c #8EE05C",
"U  c #8EE15C",
"Y  c #93E35E",
"T  c #94E35E",
"R  c #95E45E",
"E  c #98E55F",
"W  c #99E65F",
"Q  c #82CC63",
"!  c #8ACF67",
"~  c #85D261",
"^  c #8EDC63",
"/  c #9EDD6B",
"(  c #99E560",
")  c #9AE660",
"_  c #9BE760",
"`  c #9BE662",
"'  c #9CE761",
"]  c #9CE564",
"[  c #9EE861",
"{  c #9FE862",
"}  c #A0E963",
"|  c #A5EB65",
" . c #A7EB67",
".. c #A0E56B",
"X. c #A5E76B",
"o. c #AFEE6A",
"O. c #B1EF6C",
"+. c #AEE870",
"@. c #B5EE72",
"#. c #B5EE73",
"$. c #BBF370",
"%. c #BAF371",
"&. c #BBF371",
"*. c #BDF472",
"=. c #BEF473",
"-. c #BFF473",
";. c #C0F574",
":. c #C3F676",
">. c #C5F776",
",. c #C6F777",
"<. c #C8F878",
"1. c #CAF878",
"2. c #CBF97A",
"3. c #CEFA7B",
"4. c #D2FC7D",
"5. c #D2FC7E",
"6. c #D3FC7E",
"7. c #D3FD7E",
"8. c #D3FC7F",
"9. c None",
/* pixels */
"9.9.9.9.9.9.9.9.9.9.9.9.9.9.9.9.9.9.9.9.9.9.9.9.9.9.9.9.9.9.9.9.",
"9.9.9.9.9.9.9.9.9.9.9.9.9.9.9.9.9.9.9.9.9.9.9.9.9.9.9.9.9.9.9.9.",
"9.9.9.9.9.9.9.9.9.9.9.9.9.9.9.9.9.9.9.9.9.9.9.9.9.9.9.9.9.9.9.9.",
"9.9.9.9.9.9.9.9.9.9.9.9.9.9.9.9.9.9.9.9.9.9.9.9.9.9.9.9.9.9.9.9.",
"9.9.9.9.9.9.9.9.9.9.9.9.9.9.9.9.9.9.9.9.9.9.9.9.9.9.9.9.9.9.9.9.",
"9.9.9.9.9.9.9.9.9.9.9.9.9.9.9.9.9.9.9.9.9.9.9.9.9.9.9.9.9.9.9.9.",
"9.9.9.9.9.9.9.9.9.9.9.9.9.9.9.9.9.9.9.9.9.9.9.9.9.9.9.9.9.9.9.9.",
"9.9.9.9.9.9.9.9.9.9.9.9.9.9.9.9.9.9.9.9.9.9.9.9.9.9.9.9.9.9.9.9.",
"9.9.9.9.9.9.9.9.9.9.9.9.9.9.9.9.9.9.9.9.9.9.9.9.9.9.9.9.9.9.9.9.",
"9.9.9.9.9.9.9.9.9.9.9.9.9.9.9.9.9.9.9.9.9.9.9.9.9.9.9.9.9.9.9.9.",
"9.9.9.9.9.9.9.9.9.9.9.9.9.9.9.9.9.9.9.9.9.9.9.9.9.9.9.9.9.9.9.9.",
"9.9.9.9.9.9.9.9.9.9.9.9.9.9.9.9.9.9.9.9.9.9.9.9.9.9.9.9.9.9.9.9.",
"9.9.9.9.9.9.9.9.9.9.X . 9.o 9.9.9.9.9.9.9.9.9.9.9.9.9.9.9.9.9.9.",
"9.9.9.9.9.9.9.9.9.9.@ 9.a w 9.9.9.9.9.9.9.9.9.9.9.9.9.9.9.9.9.9.",
"9.9.9.9.9.9.9.9.9.9.9.9.4 r 9.9.9.9.9.9.9.9.9.9.9.9.9.9.9.9.9.9.",
"9.9.9.9.9.9.9.9.9.9.9.9.@ 8 9.9.9.9.9.9.9.9.9.9.9.9.9.9.9.9.9.9.",
"9.9.9.9.9.9.9.9.9.9.9.9.* 9.9.9.9.9.9.9.9.9.9.9.9.9.9.9.9.9.9.9.",
"9.9.9.9.9.9.9.9.9.9.9.9.9.9.9.9.9.9.9.9.9.9.9.9.9.9.9.9.9.9.9.9.",
"9.9.9.9.9.9.9.9.9.9.9.9.9.9.9.9.9.9.9.9.9.9.9.9.9.9.9.9.9.9.9.9.",
"9.9.9.9.9.9.9.9.9.9.9.9.9.9.9.9.9.9.9.g 9.9.9.9.9.9.9.9.9.9.9.9.",
"9.9.9.9.9.9.9.9.9.9.& & & 9.9.9.9.9.9.h 9.9.9.9.9.9.9.9.9.9.9.9.",
"9.9.9.9.9.9.9.9.9.9.@ @ @   9.9.9.9.9.9.9.9.9.9.9.9.9.9.9.9.9.9.",
"9.9.9.9.9.9.9.9.9.t t > % = 5 9.9.9.9.9.9.9.9.9.9.9.9.9.9.9.9.9.",
"9.9.9.9.9.9.9.9.N W E n - q l x k 9.9.9.9.9.9.9.9.9.9.9.9.9.9.9.",
"9.9.9.9.9.9.9.9.M W W T 2 0 L T A s 9.9.9.9.9.9.9.9.9.9.9.9.9.9.",
"9.9.9.9.9.9.9.9.y W W W j H Y W J 9 # 9.9.9.9.9.9.9.9.9.9.9.9.9.",
"9.9.9.9.9.9.9.9.< K &.&.X.` o.&.~ : $ 9.9.9.9.9.9.9.9.9.9.9.9.9.",
"9.9.9.9.9.9.9.9.; B 7.6.6.%.,.6.! 1 p 9.9.9.9.9.9.9.9.9.9.9.9.9.",
"9.9.9.9.9.9.9.9.3 m >.4.6.<.3.2.Q u P c : 9.9.9.9.9.9.9.9.9.9.9.",
"9.9.9.9.9.9.9.g g b R 1.3. .$.O.v i R I g 9.9.9.9.9.9.9.9.9.9.9.",
"9.9.9.9.9.9.9.g g h b ( [ ) ' _ G f Z U g 9.9.9.9.9.9.9.9.9.9.9.",
"9.9.9.9.9.9.9.g V @.#.:.} W W W J g z M g 9.9.9.9.9.9.9.9.9.9.9.",
"9.9.9.9.9.9.9.g D 6.6.6.-.&.| W ] ..^ g d 9.9.9.9.9.9.9.9.9.9.9.",
"9.9.9.9.9.9.9.g S 6.6.6.6.6.*.O.;.5.+.7 6 9.9.9.9.9.9.9.9.9.9.9.",
"9.9.9.9.9.9.9.e C ,.6.6.5.6.6.6.8.3./ O # 9.9.9.9.9.9.9.9.9.9.9.",
"9.9.9.9.9.9.9., M { 6.6.6.6.6.6.5.=.F + @ 9.9.9.9.9.9.9.9.9.9.9."
};
