/* XPM */
static char *_879_a221b8c471144a8f30b5f26b5d4a6f387009d25128ba152e9f3d92acd4ebc6df[] = {
/* columns rows colors chars-per-pixel */
"32 36 167 2 ",
"   c #15140B",
".  c #1A160D",
"X  c #17190C",
"o  c #1B1B0E",
"O  c #1C1C12",
"+  c #1F1F18",
"@  c #23190F",
"#  c #231B12",
"$  c #2B1C13",
"%  c #1E230F",
"&  c #222213",
"*  c #2C2416",
"=  c #272916",
"-  c #24241C",
";  c #29251C",
":  c #2C2D1C",
">  c #332216",
",  c #362619",
"<  c #342919",
"1  c #2D3A10",
"2  c #2D311A",
"3  c #313716",
"4  c #34361C",
"5  c #3D321F",
"6  c #323A19",
"7  c #393B19",
"8  c #2C2B23",
"9  c #322A22",
"0  c #3D2F21",
"q  c #3C2F28",
"w  c #333324",
"e  c #3D3424",
"r  c #343A22",
"t  c #3F3B21",
"y  c #36342B",
"u  c #38372E",
"i  c #363630",
"p  c #3A3A32",
"a  c #3E3E39",
"s  c #432E20",
"d  c #463523",
"f  c #4C3C25",
"g  c #433A2A",
"h  c #4C3B2B",
"j  c #503F26",
"k  c #513D29",
"l  c #423C34",
"z  c #3A4119",
"x  c #3E4D1C",
"c  c #374514",
"v  c #3F4423",
"b  c #3F4236",
"n  c #4D5B1C",
"m  c #4D631C",
"M  c #58781B",
"N  c #444324",
"B  c #474F23",
"V  c #41452F",
"C  c #48462B",
"Z  c #42492E",
"A  c #514027",
"S  c #54432B",
"D  c #475620",
"F  c #4D522B",
"G  c #51542B",
"H  c #414436",
"J  c #43433D",
"K  c #4F473C",
"L  c #4A4B3C",
"P  c #4A4634",
"I  c #594531",
"U  c #5D4B31",
"Y  c #584A38",
"T  c #55493A",
"R  c #4E543B",
"E  c #644F39",
"W  c #665036",
"Q  c #695236",
"!  c #67533A",
"~  c #6B553B",
"^  c #70573C",
"/  c #72593D",
"(  c #4F6424",
")  c #516625",
"_  c #566F22",
"`  c #5F6B24",
"'  c #54652C",
"]  c #576E29",
"[  c #596A2B",
"{  c #5B7522",
"}  c #5D7927",
"|  c #677425",
" . c #667D24",
".. c #78613F",
"X. c #454540",
"o. c #4A4A46",
"O. c #5C4E43",
"+. c #4F5244",
"@. c #545A43",
"#. c #6E5A41",
"$. c #67554A",
"%. c #755E44",
"&. c #7B5F43",
"*. c #7C6244",
"=. c #7D6448",
"-. c #826447",
";. c #856846",
":. c #836649",
">. c #8C6E4D",
",. c #967651",
"<. c #997654",
"1. c #9D7953",
"2. c #9E7A58",
"3. c #A57F5B",
"4. c #678F1E",
"5. c #698F1F",
"6. c #68911F",
"7. c #6D981E",
"8. c #668823",
"9. c #698D23",
"0. c #708B25",
"q. c #6C9220",
"w. c #6F9A20",
"e. c #6F9329",
"r. c #719427",
"t. c #70912C",
"y. c #74992B",
"u. c #7A9C2D",
"i. c #749D26",
"p. c #7F9F3E",
"a. c #75A123",
"s. c #7BA625",
"d. c #7EAB28",
"f. c #7AA62B",
"g. c #7AA032",
"h. c #7F9B4B",
"j. c #9B8638",
"k. c #B48C29",
"l. c #A89B39",
"z. c #81AC26",
"x. c #83A82B",
"c. c #86B926",
"v. c #8ABE27",
"b. c #A8BA3A",
"n. c #8BC027",
"m. c #91C52E",
"M. c #92C533",
"N. c #94C832",
"B. c #A8825B",
"V. c #8BAD47",
"C. c #98B64E",
"Z. c #92BC41",
"A. c #9DBC50",
"S. c #BE9364",
"D. c #C19564",
"F. c #95C042",
"G. c #98C348",
"H. c #A3D34B",
"J. c #A9DB4B",
"K. c #A2D444",
"L. c #ACD65E",
"P. c #AFE054",
"I. c #B3E459",
"U. c #BFEF67",
"Y. c #B5E263",
"T. c #EBE64D",
"R. c None",
/* pixels */
"R.R.R.R.R.R.R.R.R.R.R.R.R.R.R.R.R.R.R.R.R.R.R.R.R.R.R.R.R.R.R.R.",
"R.R.R.R.R.R.R.R.R.R.R.R.R.R.R.R.R.R.R.R.R.R.R.R.R.R.R.R.R.R.R.R.",
"R.R.R.R.R.R.R.R.R.R.R.R.R.R.R.R.R.R.R.R.R.R.R.R.R.R.R.R.R.R.R.R.",
"R.R.R.R.R.R.R.R.R.R.R.R.R.R.R.R.9 # O - R.R.R.R.R.R.R.R.R.R.R.R.",
"R.R.R.R.R.R.R.R.R.R.R.R.R.R.R.- u R.R.8 R.R.R.R.R.R.R.R.R.R.R.R.",
"R.R.R.R.R.R.R.R.R.R.R.R.R.R.R.8 J R.R.R.R.R.R.R.R.R.R.R.R.R.R.R.",
"R.R.R.R.R.R.R.R.R.R.R.R.R.R.R.: O & R.l R.R.R.R.R.R.R.R.R.R.R.R.",
"R.R.R.R.R.R.R.R.R.R.R.R.R.< 7 i.K.a.z y J X.R.R.R.R.R.R.R.R.R.R.",
"R.R.R.R.R.R.R.R.R.R.R.R.R.m | m.I.m.0.M R.R.R.R.R.R.R.R.R.R.R.R.",
"R.R.R.R.R.R.R.R.& % % O % r.7.c.v.c.w.s.: o % & p R.R.R.R.R.R.R.",
"R.R.R.R.R.R.R.R.R.m _ 9.n u.J.N.v.N.J.z.n 8.M ) R.R.R.R.R.R.R.R.",
"R.R.R.R.R.R.R.R.R.R.8 r 8.9.b.A.g.C.b.6.} w a R.R.R.R.R.R.R.R.R.",
"R.R.R.R.R.R.R.R.R.R.R.R.& x.T.l.u.j.T.z.H R.R.R.R.R.R.R.R.R.R.R.",
"R.R.R.R.R.R.R.R.R.R.R.R.R.D q.f.G.w.6.G J R.R.R.R.R.R.R.R.R.R.R.",
"R.R.R.R.R.R.R.R.R.R.R.P * = 6 [ { ' x 2 * T R.R.R.R.R.R.R.R.R.R.",
"R.R.R.R.R.R.R.R.R.$.>.S.-.4 & t.P.i.& v ^ D.>.O.R.R.R.R.R.R.R.R.",
"R.R.R.R.R.R.R.R.+ < Q B.! *   3 q.2   & ! 3./ 5 y R.R.R.R.R.R.R.",
"R.R.R.R.R.R.R.R.t F w U A f < X 1 X * A S E e G N R.R.R.R.R.R.R.",
"R.R.R.R.R.R.R.R Z.V.X $ *.S A f @ f A S ! @ o p.Z.L R.R.R.R.R.R.",
"R.R.R.R.R.R.R.c H. .; - s <.*.;.f ;.=.2.k * 8 ` H.) R.R.R.R.R.R.",
"R.R.R.R.R.R.y ` z.C R.R.@ U =.*.f *.&.U e R.R.4 z.8.J R.R.R.R.R.",
"R.R.R.R.R.R.r a.s.J R.R.. s U A > j U f 9 R.R.R.a.a.H R.R.R.R.R.",
"R.R.R.R.R.R.L 9.d.b R.R.@ * 9 ..k.*.w $ 9 R.R.@.s.u.+.R.R.R.R.R.",
"R.R.R.R.R.R.R.' U.L.L H S j S &.> -.A j f J Z Y.Y.V.R.R.R.R.R.R.",
"R.R.R.R.R.R.R.x M.y.b l ! W &.,.> 2.*.U E X.4 e.M.[ R.R.R.R.R.R.",
"R.R.R.R.R.R.R.R._ B R.p # Q <.I @ S ,.~ $ b R.N } R.R.R.R.R.R.R.",
"R.R.R.R.R.R.R.R.R.R.R.  $ $   - - 8 . $ $ . R.R.R.R.R.R.R.R.R.R.",
"R.R.R.R.R.R.R.R.R.R.; < $ # i R.R.R.y # $ & l R.R.R.R.R.R.R.R.R.",
"R.R.R.R.R.R.R.R.R.R.8 *.&.#.a R.R.R.K *.*.;.K R.R.R.R.R.R.R.R.R.",
"R.R.R.R.R.R.R.R.R.R.R.d h * R.R.R.R.R.# d h R.R.R.R.R.R.R.R.R.R.",
"R.R.R.R.R.R.R.R.R.R.> E f @ a R.R.R.a . d ^ , a R.R.R.R.R.R.R.R.",
"R.R.R.R.R.R.R.R.R.e 1.<.#.5 o.R.R.R.R., %.2.<.l R.R.R.R.R.R.R.R.",
"R.R.R.R.R.R.R.R.R.g :.~ g H R.R.R.R.R.l u ! =.T R.R.R.R.R.R.R.R.",
"R.R.R.R.R.R.R.R.R.R.- i R.R.R.R.R.R.R.R.R.; ; R.R.R.R.R.R.R.R.R.",
"R.R.R.R.R.R.R.R.R.R.R.R.R.R.R.R.R.R.R.R.R.R.R.R.R.R.R.R.R.R.R.R.",
"R.R.R.R.R.R.R.R.R.R.R.R.R.R.R.R.R.R.R.R.R.R.R.R.R.R.R.R.R.R.R.R."
};
