/* XPM */
static char *_3647_a9f3f90031414aee24071e29c82771c5632acd8c600399b674f243f474f499c1[] = {
/* columns rows colors chars-per-pixel */
"32 36 51 1 ",
"  c #5F8AC1",
". c #608EC4",
"X c #6190C6",
"o c #669FD3",
"O c #67A2D6",
"+ c #69A4D7",
"@ c #68A5D9",
"# c #6BAADD",
"$ c #72A2D2",
"% c #75A9D6",
"& c #71AEDC",
"* c #6FB0DF",
"= c #73B2DE",
"- c #79B7DF",
"; c #6BADE0",
": c #6DB3E5",
"> c #6EB5E8",
", c #74B5E0",
"< c #78B7E0",
"1 c #77B9E2",
"2 c #7BBCE3",
"3 c #71BEF0",
"4 c #7EC1E6",
"5 c #7DC5ED",
"6 c #72C1F2",
"7 c #79C7F3",
"8 c #7CCAF4",
"9 c #80B3DE",
"0 c #83B7E1",
"q c #85BBE3",
"w c #82C4E7",
"e c #80C6E9",
"r c #8BC1E8",
"t c #86CAE9",
"y c #89CDEB",
"u c #91C8EE",
"i c #8CD3ED",
"p c #92D5EF",
"a c #82CEF4",
"s c #84D1F6",
"d c #8AD5F5",
"f c #8FDAF6",
"g c #92DBF2",
"h c #92DEF8",
"j c #97E0F3",
"k c #99E3F4",
"l c #96E1F9",
"z c #9AE4F9",
"x c #9EE8FA",
"c c #A2ECFB",
"v c white",
/* pixels */
"OOOOkxhd666sfxf8,+O++&12*2336663",
"oooO<xxh666fcv8-@++O+&w,*a3666s2",
"oooo1sxxd68cvv,OO@@O+,i<7s6saayk",
"oooo<ssxzhhvvf=@OOO@,ti7d6ssgvvv",
"Ooooosslzlcvf-@OO@+O1d86faxkkvyy",
"ooooo3sszzvh1OOOOOOOahafxggyyt@@",
",oooo677scvt,O@OOO@Ohzdphyyyt2##",
"w=ooo63shvt,@OOO@O,,xckkyyyy2<&@",
"-wq#O6aahvtOOOOOO--hcyitq4422@@2",
"%&&++8savv-O++@,,,zjyy4@24i4#@ii",
"++++1sscvyOO+,1ttckyy@=@4ii@@2lv",
"OO+#2ahvv@@O,,-tcjy44#-#2i#@2lvv",
"-##45scvi;22<tgcy@@##4#12i2slvvl",
"-#15dhvd>;22hkky####,w*22ellvch6",
"5:55gccs55iiky4@@*@442*,,llvxl6@",
"5558gc7shdkkkw#=*-514##6lcxvz7@@",
"stallcsfcxct#@*#**4#4@sscxvl7i%X",
"s8hcchsvvh2#*=:=,1#4@szxxvl6@qrq",
"slcclfhxvv4*,####=466sxxvl66X 9u",
"lhclxxxkydvt####*586lxxv666.  $r",
"hcljx8*#wkkvv###*868czvl6+..  00",
"hcxxh4##ewikv4##8slxxvl6@+.. 00$",
"ccxh44*###ppkvv68dkxlv6OOo..q0$.",
"cxlt54*###5ikkvv6xxzv66OooO%q%  ",
"xs6i5######1fxxfvxzvs6oOoo-yq%.o",
"865ie*###;;387zxzxvs6+ooo-py9Ooo",
"s:pg##,:##6366ssxxv6++Oo2ty-oooO",
"##g4##4-#6666szxxv6+O+O2-y9-oo2-",
"*4g5#;8i66666llxvfO@++22y--oo<2y",
"#5g5##4h6666zzxv6@O@+ww&t=O<-2gc",
"#5g###8l6666zxxv6+@@42OtrO<yykch",
"#j5#*6s8l66szxv6@@O4w+2w4-ykckhd",
"*g5#6668k6szvvs@@@42O@-#-jjch666",
"*g566668lszxvz@@@14O@O41jjfl6*OO",
"*j876666lccvl@@@,@@@@ttijhl6O-OO",
"6x866666kcv86@@*=*@1yjjxhs*OO-@#"
};
